<svg width="129" height="129" viewBox="0 0 129 129" fill="none" xmlns="http://www.w3.org/2000/svg">
<circle cx="64.6986" cy="65.2399" r="39.2104" transform="rotate(30 64.6986 65.2399)" fill="#00A991"/>
<mask id="path-2-inside-1_163_2343" fill="white">
<path d="M71.421 6.50003C71.8194 3.16123 69.433 0.101262 66.0716 0.0192745C52.737 -0.305959 39.5726 3.51288 28.4319 11.0275C15.602 19.6814 6.31122 32.6599 2.25498 47.5946C-1.80125 62.5293 -0.352548 78.4246 6.33674 92.38C13.026 106.335 24.5099 117.42 38.6929 123.612C52.8759 129.804 68.8125 130.691 83.5945 126.109C98.3766 121.528 111.019 111.784 119.214 98.6564C127.409 85.5287 130.611 69.892 128.236 54.5997C126.173 41.3208 120.024 29.0702 110.721 19.5121C108.375 17.1026 104.509 17.4327 102.331 19.9947V19.9947C100.153 22.5567 100.496 26.3771 102.787 28.8376C109.891 36.4642 114.589 46.0784 116.203 56.4688C118.13 68.8742 115.533 81.5589 108.885 92.2082C102.237 102.858 91.9812 110.762 79.9898 114.478C67.9984 118.195 55.0704 117.476 43.565 112.453C32.0595 107.43 22.7436 98.4375 17.3171 87.1167C11.8907 75.7959 10.7155 62.9014 14.0059 50.7861C17.2964 38.6709 24.8332 28.1426 35.241 21.1223C43.9583 15.2424 54.203 12.1518 64.6256 12.1769C67.9881 12.1851 71.0226 9.83884 71.421 6.50003V6.50003Z"/>
</mask>
<path d="M71.421 6.50003C71.8194 3.16123 69.433 0.101262 66.0716 0.0192745C52.737 -0.305959 39.5726 3.51288 28.4319 11.0275C15.602 19.6814 6.31122 32.6599 2.25498 47.5946C-1.80125 62.5293 -0.352548 78.4246 6.33674 92.38C13.026 106.335 24.5099 117.42 38.6929 123.612C52.8759 129.804 68.8125 130.691 83.5945 126.109C98.3766 121.528 111.019 111.784 119.214 98.6564C127.409 85.5287 130.611 69.892 128.236 54.5997C126.173 41.3208 120.024 29.0702 110.721 19.5121C108.375 17.1026 104.509 17.4327 102.331 19.9947V19.9947C100.153 22.5567 100.496 26.3771 102.787 28.8376C109.891 36.4642 114.589 46.0784 116.203 56.4688C118.13 68.8742 115.533 81.5589 108.885 92.2082C102.237 102.858 91.9812 110.762 79.9898 114.478C67.9984 118.195 55.0704 117.476 43.565 112.453C32.0595 107.43 22.7436 98.4375 17.3171 87.1167C11.8907 75.7959 10.7155 62.9014 14.0059 50.7861C17.2964 38.6709 24.8332 28.1426 35.241 21.1223C43.9583 15.2424 54.203 12.1518 64.6256 12.1769C67.9881 12.1851 71.0226 9.83884 71.421 6.50003V6.50003Z" fill="#00A991" stroke="#00A991" stroke-width="4.33613" mask="url(#path-2-inside-1_163_2343)"/>
<path d="M63.3525 71.8294C65.0607 76.1505 62.9426 81.0381 58.6215 82.7463C54.3004 84.4543 49.4128 82.3363 47.7046 78.0153C47.6671 77.9204 47.6337 77.8244 47.5999 77.7291L63.2332 71.5489C63.2737 71.6417 63.315 71.7346 63.3525 71.8294Z" fill="#161616"/>
<path d="M93.382 78.5169C91.6639 83.0098 86.6285 85.2593 82.1356 83.5413C77.6426 81.8232 75.3931 76.7878 77.1112 72.2949C77.1489 72.1962 77.1902 72.0995 77.2311 72.003L93.4874 78.2195C93.4534 78.3186 93.4197 78.4182 93.382 78.5169Z" fill="#161616"/>
</svg>
