<svg width="317" height="168" viewBox="0 0 317 168" fill="none" xmlns="http://www.w3.org/2000/svg">
<rect width="317" height="168" rx="15.4137" fill="#D9F2EF"></rect>
<g clip-path="url(#clip0_115_984)">
<path d="M169.728 45H42.9097V119.519H169.728V45Z" fill="#007F6D"></path>
<path d="M160.55 54.9109H52.6133V108.212H160.55V54.9109Z" fill="#003B33"></path>
<path fill-rule="evenodd" clip-rule="evenodd" d="M42.9096 45V119.519C3.03145 119.519 3.03145 45 42.9096 45Z" fill="#00A991"></path>
<path fill-rule="evenodd" clip-rule="evenodd" d="M33.7945 56.8621C32.46 57.6185 31.2025 58.5676 30.0221 59.7432C18.5409 71.1713 19.2973 99.2888 33.7945 107.556V56.8621Z" fill="#003B33"></path>
<path d="M104.396 116.839H42.9097V188.352H104.396V116.839Z" fill="#00A991"></path>
<path d="M95.1796 127.57H52.1265V177.629H95.1796V127.57Z" fill="#007F6D"></path>
<path d="M202.639 116.839H104.396V188.352H202.639V116.839Z" fill="#007F6D"></path>
<path d="M192.7 127.57H114.697V177.629H192.7V127.57Z" fill="#008774"></path>
<path fill-rule="evenodd" clip-rule="evenodd" d="M114.697 170.555H192.7V172.786H114.697V170.555ZM114.697 139.72H192.7V141.941H114.697V139.72ZM114.697 150.098H192.7V152.319H114.697V150.098ZM114.697 160.534H192.7V162.764H114.697V160.534Z" fill="#003B33"></path>
<path fill-rule="evenodd" clip-rule="evenodd" d="M52.1265 170.555H95.1796V172.786H52.1265V170.555ZM52.1265 139.72H95.1796V141.941H52.1265V139.72ZM52.1265 150.098H95.1796V152.319H52.1265V150.098ZM52.1265 160.534H95.1796V162.764H52.1265V160.534Z" fill="#003B33"></path>
<path d="M55.7206 127.57H52.1265V177.629H55.7206V127.57Z" fill="#003B33"></path>
<path d="M192.7 127.57H189.115V177.629H192.7V127.57Z" fill="#003B33"></path>
<path fill-rule="evenodd" clip-rule="evenodd" d="M113.054 120.647C112.033 120.647 111.493 121.847 112.168 122.613C112.394 122.873 112.717 123.017 113.054 123.017H115.42C116.441 123.017 116.981 121.818 116.306 121.042C116.08 120.796 115.757 120.647 115.42 120.647H113.054ZM110.896 128.25C110.896 127.228 109.696 126.689 108.92 127.363C108.675 127.58 108.525 127.912 108.525 128.25V130.615C108.525 131.627 109.725 132.176 110.501 131.492C110.751 131.275 110.891 130.943 110.891 130.615V128.25H110.896ZM110.896 144.828C110.896 143.807 109.696 143.267 108.92 143.942C108.675 144.168 108.525 144.491 108.525 144.828V147.194C108.525 148.206 109.725 148.755 110.501 148.08C110.751 147.854 110.891 147.531 110.891 147.194V144.828H110.896ZM110.896 161.402C110.896 160.38 109.696 159.841 108.92 160.515C108.675 160.742 108.525 161.065 108.525 161.402V163.767C108.525 164.789 109.725 165.328 110.501 164.654C110.751 164.428 110.891 164.105 110.891 163.767V161.402H110.896ZM110.896 177.976C110.896 176.964 109.696 176.415 108.92 177.084C108.675 177.311 108.525 177.634 108.525 177.976C108.525 178.698 108.453 179.72 108.569 180.505C108.67 181.218 109.373 181.671 110.067 181.478C110.645 181.314 110.997 180.765 110.915 180.177C110.823 179.474 110.896 178.66 110.896 177.976ZM122.468 182.052C121.457 182.052 120.907 183.251 121.591 184.027C121.808 184.273 122.141 184.417 122.468 184.417H124.834C125.855 184.417 126.395 183.218 125.725 182.442C125.508 182.196 125.176 182.052 124.834 182.052H122.468ZM139.047 182.052C138.035 182.052 137.486 183.251 138.17 184.027C138.387 184.273 138.719 184.417 139.047 184.417H141.422C142.434 184.417 142.983 183.218 142.299 182.442C142.082 182.196 141.75 182.052 141.422 182.052H139.047ZM155.63 182.052C154.609 182.052 154.06 183.251 154.744 184.027C154.961 184.273 155.293 184.417 155.63 184.417H157.996C159.008 184.417 159.557 183.218 158.873 182.442C158.656 182.196 158.323 182.052 157.996 182.052H155.63ZM172.209 182.052C171.187 182.052 170.648 183.251 171.322 184.027C171.549 184.273 171.872 184.417 172.209 184.417H174.574C175.586 184.417 176.135 183.218 175.461 182.442C175.234 182.196 174.912 182.052 174.574 182.052H172.209ZM188.782 182.052C187.761 182.052 187.221 183.251 187.896 184.027C188.122 184.273 188.445 184.417 188.782 184.417H191.148C192.16 184.417 192.709 183.218 192.035 182.442C191.808 182.196 191.485 182.052 191.148 182.052H188.782ZM196.255 173.876C196.255 174.887 197.455 175.437 198.221 174.752C198.481 174.536 198.626 174.203 198.626 173.876V171.5C198.626 170.489 197.416 169.939 196.65 170.623C196.4 170.84 196.255 171.173 196.255 171.5V173.876ZM196.255 157.287C196.255 158.309 197.455 158.858 198.221 158.174C198.481 157.957 198.626 157.625 198.626 157.287V154.922C198.626 153.91 197.416 153.361 196.65 154.045C196.4 154.262 196.255 154.594 196.255 154.922V157.287ZM196.255 140.714C196.255 141.735 197.455 142.275 198.221 141.605C198.481 141.379 198.626 141.056 198.626 140.714V138.348C198.626 137.336 197.416 136.787 196.65 137.462C196.4 137.688 196.255 138.011 196.255 138.348V140.714ZM196.149 124.521C196.284 124.954 196.655 125.262 197.098 125.325C197.965 125.45 198.669 124.622 198.399 123.783C198.057 122.752 197.387 121.89 196.467 121.312C195.99 121.023 195.393 121.095 194.998 121.49C194.458 122.039 194.574 122.926 195.214 123.331C195.658 123.62 195.981 124.024 196.144 124.521H196.149ZM181.734 123.013C182.746 123.013 183.295 121.813 182.611 121.037C182.394 120.791 182.061 120.642 181.734 120.642H179.359C178.347 120.642 177.798 121.842 178.482 122.608C178.699 122.868 179.031 123.013 179.359 123.013H181.734ZM165.15 123.013C166.172 123.013 166.721 121.813 166.037 121.037C165.82 120.791 165.488 120.642 165.15 120.642H162.785C161.773 120.642 161.224 121.842 161.908 122.608C162.125 122.868 162.457 123.013 162.785 123.013H165.15ZM148.572 123.013C149.593 123.013 150.133 121.813 149.458 121.037C149.232 120.791 148.909 120.642 148.572 120.642H146.206C145.195 120.642 144.645 121.842 145.32 122.608C145.546 122.868 145.879 123.013 146.206 123.013H148.572ZM131.998 123.013C133.02 123.013 133.559 121.813 132.885 121.037C132.658 120.791 132.336 120.642 131.998 120.642H129.633C128.621 120.642 128.072 121.842 128.746 122.608C128.973 122.868 129.295 123.013 129.633 123.013H131.998Z" fill="#008774"></path>
<path fill-rule="evenodd" clip-rule="evenodd" d="M97.2126 123.013C98.2244 123.013 98.7737 121.813 98.0992 121.037C97.8727 120.791 97.5499 120.642 97.2126 120.642H94.847C93.8256 120.642 93.286 121.842 93.9605 122.608C94.187 122.868 94.5098 123.013 94.847 123.013H97.2126ZM101.284 126.453C101.284 125.431 100.084 124.892 99.3181 125.566C99.0579 125.792 98.9134 126.115 98.9134 126.453V128.818C98.9134 129.83 100.123 130.379 100.889 129.705C101.134 129.478 101.279 129.155 101.279 128.818V126.453H101.284ZM101.284 143.026C101.284 142.005 100.084 141.465 99.3181 142.14C99.0579 142.366 98.9134 142.689 98.9134 143.026V145.392C98.9134 146.413 100.123 146.953 100.889 146.278C101.134 146.052 101.279 145.729 101.279 145.392V143.026H101.284ZM101.284 159.605C101.284 158.593 100.084 158.044 99.3181 158.718C99.0579 158.945 98.9134 159.268 98.9134 159.605V161.97C98.9134 162.992 100.123 163.531 100.889 162.857C101.134 162.63 101.279 162.308 101.279 161.97V159.605H101.284ZM101.284 176.178C101.284 175.167 100.084 174.617 99.3181 175.302C99.0579 175.518 98.9134 175.851 98.9134 176.178V178.544C98.9134 179.566 100.123 180.105 100.889 179.431C101.134 179.214 101.279 178.881 101.279 178.544V176.178H101.284ZM89.3401 184.417C90.3519 184.417 90.9011 183.218 90.217 182.442C90.0002 182.196 89.6677 182.052 89.3401 182.052H86.9649C85.9531 182.052 85.4039 183.251 86.088 184.027C86.3048 184.273 86.6373 184.417 86.9649 184.417H89.3401ZM72.752 184.417C73.7734 184.417 74.3226 183.218 73.6385 182.442C73.4217 182.196 73.0892 182.052 72.752 182.052H70.3863C69.3746 182.052 68.8253 183.251 69.5095 184.027C69.7263 184.273 70.0587 184.417 70.3863 184.417H72.752ZM56.1782 184.417C57.1996 184.417 57.7393 183.218 57.0647 182.442C56.8383 182.196 56.5155 182.052 56.1782 182.052H53.8126C52.8009 182.052 52.2516 183.251 52.9213 184.027C53.1478 184.273 53.4706 184.417 53.8126 184.417H56.1782ZM45.7715 174.642C45.7715 175.663 46.9712 176.203 47.7372 175.528C47.9974 175.302 48.1419 174.979 48.1419 174.642V172.276C48.1419 171.255 46.9326 170.715 46.1666 171.389C45.916 171.616 45.7715 171.939 45.7715 172.276V174.642ZM45.7715 158.063C45.7715 159.075 46.9712 159.624 47.7372 158.95C47.9974 158.723 48.1419 158.4 48.1419 158.063V155.697C48.1419 154.676 46.9326 154.136 46.1666 154.811C45.916 155.037 45.7715 155.36 45.7715 155.697V158.063ZM45.7715 141.489C45.7715 142.501 46.9712 143.05 47.7372 142.376C47.9974 142.149 48.1419 141.817 48.1419 141.489V139.124C48.1419 138.102 46.9326 137.563 46.1666 138.237C45.916 138.464 45.7715 138.786 45.7715 139.124V141.489ZM45.7715 124.911C45.7715 125.923 46.9712 126.472 47.7372 125.788C47.9974 125.571 48.1419 125.238 48.1419 124.911V124.713C48.1419 124.28 48.2961 123.875 48.6044 123.557C49.3271 122.772 48.749 121.519 47.6938 121.562C47.3759 121.572 47.0964 121.697 46.8796 121.924C46.1666 122.69 45.7715 123.668 45.7715 124.713V124.911ZM61.6851 120.647C60.6734 120.647 60.1241 121.847 60.8083 122.613C61.0251 122.873 61.3575 123.017 61.6851 123.017H64.0604C65.0722 123.017 65.6214 121.818 64.9373 121.042C64.7205 120.796 64.388 120.647 64.0604 120.647H61.6851ZM78.2733 120.647C77.2519 120.647 76.7123 121.847 77.3868 122.613C77.6133 122.873 77.9361 123.017 78.2733 123.017H80.6389C81.6507 123.017 82.1999 121.818 81.5254 121.042C81.299 120.796 80.9665 120.647 80.6389 120.647H78.2733Z" fill="#007F6D"></path>
<mask id="mask0_115_984" style="mask-type:alpha" maskUnits="userSpaceOnUse" x="77" y="45" width="122" height="72">
<rect x="77" y="45" width="121.84" height="71.9434" fill="#D9D9D9"></rect>
</mask>
<g mask="url(#mask0_115_984)">
<circle cx="137.375" cy="97.39" r="27.511" transform="rotate(10.5343 137.375 97.39)" fill="#00A991"></circle>
<mask id="path-18-inside-1_115_984" fill="white">
<path d="M128.087 56.9592C127.57 54.6574 125.276 53.1911 123.033 53.9228C114.136 56.8254 106.32 62.4296 100.707 70.0055C94.2434 78.73 91.1319 89.4878 91.9405 100.316C92.7491 111.144 97.424 121.32 105.112 128.988C112.8 136.656 122.989 141.303 133.819 142.083C144.649 142.863 155.398 139.724 164.106 133.237C172.813 126.75 178.898 117.348 181.25 106.748C183.602 96.1476 182.064 85.055 176.917 75.4942C172.448 67.1922 165.516 60.5259 157.127 56.3783C155.012 55.3327 152.531 56.4551 151.69 58.6591V58.6591C150.848 60.8631 151.968 63.3103 154.059 64.4021C160.542 67.7863 165.897 73.0479 169.394 79.5439C173.57 87.2998 174.817 96.2983 172.909 104.897C171.001 113.497 166.065 121.123 159.002 126.385C151.938 131.648 143.218 134.195 134.432 133.562C125.647 132.929 117.382 129.159 111.145 122.939C104.908 116.719 101.116 108.463 100.46 99.6796C99.8043 90.8957 102.328 82.1689 107.572 75.0914C111.964 69.1635 118.018 64.7237 124.919 62.3034C127.145 61.5226 128.604 59.261 128.087 56.9592V56.9592Z"></path>
</mask>
<path d="M128.087 56.9592C127.57 54.6574 125.276 53.1911 123.033 53.9228C114.136 56.8254 106.32 62.4296 100.707 70.0055C94.2434 78.73 91.1319 89.4878 91.9405 100.316C92.7491 111.144 97.424 121.32 105.112 128.988C112.8 136.656 122.989 141.303 133.819 142.083C144.649 142.863 155.398 139.724 164.106 133.237C172.813 126.75 178.898 117.348 181.25 106.748C183.602 96.1476 182.064 85.055 176.917 75.4942C172.448 67.1922 165.516 60.5259 157.127 56.3783C155.012 55.3327 152.531 56.4551 151.69 58.6591V58.6591C150.848 60.8631 151.968 63.3103 154.059 64.4021C160.542 67.7863 165.897 73.0479 169.394 79.5439C173.57 87.2998 174.817 96.2983 172.909 104.897C171.001 113.497 166.065 121.123 159.002 126.385C151.938 131.648 143.218 134.195 134.432 133.562C125.647 132.929 117.382 129.159 111.145 122.939C104.908 116.719 101.116 108.463 100.46 99.6796C99.8043 90.8957 102.328 82.1689 107.572 75.0914C111.964 69.1635 118.018 64.7237 124.919 62.3034C127.145 61.5226 128.604 59.261 128.087 56.9592V56.9592Z" fill="#00A991" stroke="#00A991" stroke-width="3.04233" mask="url(#path-18-inside-1_115_984)"></path>
<circle cx="134.74" cy="98.0449" r="5.09591" transform="rotate(-19.4657 134.74 98.0449)" fill="#161616"></circle>
<circle cx="153.959" cy="91.2527" r="5.09591" transform="rotate(-19.4657 153.959 91.2527)" fill="#161616"></circle>
</g>
<path fill-rule="evenodd" clip-rule="evenodd" d="M143.644 116.841V116.571C143.644 114.495 145.349 112.789 147.426 112.789H166.273C168.35 112.789 170.046 114.495 170.046 116.571V133.053V133.333C170.046 135.409 168.35 137.105 166.273 137.105H147.426C145.349 137.105 143.644 135.409 143.644 133.333V116.841Z" fill="#003B33"></path>
<path fill-rule="evenodd" clip-rule="evenodd" d="M149.078 116.84H175.48V133.332C175.48 135.408 173.775 137.104 171.698 137.104H152.851C150.774 137.104 149.078 135.408 149.078 133.332V116.84Z" fill="#007F6D"></path>
<path fill-rule="evenodd" clip-rule="evenodd" d="M149.078 133.059H175.48V116.577C175.48 114.5 173.775 112.794 171.698 112.794H152.851C150.774 112.794 149.078 114.5 149.078 116.577V133.059Z" fill="#007F6D"></path>
<path fill-rule="evenodd" clip-rule="evenodd" d="M164.322 124.944V130.369C164.322 131.472 163.421 132.373 162.327 132.373C161.224 132.373 160.323 131.472 160.323 130.369V124.997C158.68 124.255 157.543 122.597 157.543 120.675C157.543 118.059 159.663 115.944 162.274 115.944C164.885 115.944 167.005 118.064 167.005 120.675C167.005 122.554 165.912 124.178 164.317 124.944H164.322Z" fill="#003B33"></path>
</g>
<path d="M182 71C185.833 65.3333 197.6 54 214 54" stroke="#00A991" stroke-width="2" stroke-linecap="round" stroke-dasharray="3 5"></path>
<path d="M105.857 53.1825C106.176 46.3485 110.316 30.5445 124.314 22.0004" stroke="#00A991" stroke-width="2" stroke-linecap="round" stroke-dasharray="3 5"></path>
<path d="M192 93.7676C197.091 93.4377 209.147 95.1944 216.641 104.86" stroke="#00A991" stroke-width="2" stroke-linecap="round" stroke-dasharray="3 5"></path>
<rect x="129" y="10" width="60.7353" height="24" rx="12" fill="#003B33"></rect>
<path d="M146.029 25.6934C145.428 25.6934 144.905 25.6003 144.461 25.4141C144.021 25.2279 143.673 24.9683 143.419 24.6353C143.165 24.3022 143.021 23.9137 142.989 23.4697L142.984 23.3945H144.327L144.332 23.4482C144.354 23.6667 144.439 23.8564 144.59 24.0176C144.744 24.1787 144.948 24.3058 145.202 24.3989C145.456 24.4884 145.746 24.5332 146.072 24.5332C146.384 24.5332 146.66 24.4849 146.899 24.3882C147.139 24.2915 147.327 24.159 147.463 23.9907C147.599 23.8188 147.667 23.6219 147.667 23.3999V23.3945C147.667 23.1152 147.558 22.8879 147.34 22.7124C147.121 22.5334 146.762 22.3901 146.26 22.2827L145.428 22.1108C144.633 21.9425 144.055 21.674 143.693 21.3052C143.335 20.9328 143.156 20.4583 143.156 19.8818V19.8765C143.156 19.4146 143.278 19.0099 143.521 18.6626C143.768 18.3153 144.106 18.0449 144.536 17.8516C144.969 17.6546 145.465 17.5562 146.024 17.5562C146.597 17.5562 147.093 17.6528 147.512 17.8462C147.931 18.036 148.26 18.2956 148.5 18.625C148.74 18.9544 148.874 19.3268 148.903 19.7422L148.908 19.812H147.587L147.576 19.7476C147.544 19.5435 147.46 19.3662 147.324 19.2158C147.191 19.0618 147.014 18.9401 146.792 18.8506C146.57 18.7611 146.31 18.7163 146.013 18.7163C145.73 18.7163 145.478 18.7611 145.256 18.8506C145.034 18.9365 144.858 19.0583 144.729 19.2158C144.604 19.3734 144.542 19.5632 144.542 19.7852V19.7905C144.542 20.0627 144.647 20.2882 144.858 20.4673C145.073 20.6463 145.422 20.786 145.906 20.8862L146.738 21.0635C147.283 21.1781 147.725 21.3302 148.065 21.52C148.405 21.7098 148.654 21.9461 148.812 22.229C148.973 22.5083 149.053 22.8449 149.053 23.2388V23.2441C149.053 23.7454 148.93 24.1787 148.683 24.5439C148.439 24.9092 148.09 25.1921 147.635 25.3926C147.184 25.5931 146.649 25.6934 146.029 25.6934ZM152.341 25.5269C151.668 25.5269 151.182 25.4033 150.885 25.1562C150.588 24.9092 150.439 24.5046 150.439 23.9424V20.666H149.526V19.6294H150.439V18.1899H151.798V19.6294H153.034V20.666H151.798V23.6255C151.798 23.9155 151.859 24.1286 151.981 24.2646C152.106 24.3971 152.307 24.4634 152.582 24.4634C152.679 24.4634 152.758 24.4616 152.819 24.458C152.883 24.4508 152.955 24.4437 153.034 24.4365V25.4678C152.941 25.4857 152.833 25.5 152.711 25.5107C152.593 25.5215 152.47 25.5269 152.341 25.5269ZM156.412 25.6182C155.829 25.6182 155.326 25.4964 154.903 25.2529C154.481 25.0059 154.155 24.6549 153.926 24.2002C153.7 23.7454 153.587 23.2012 153.587 22.5674V22.5566C153.587 21.93 153.702 21.3893 153.931 20.9346C154.16 20.4762 154.484 20.1253 154.903 19.8818C155.326 19.6383 155.829 19.5166 156.412 19.5166C156.996 19.5166 157.497 19.6383 157.916 19.8818C158.339 20.1253 158.665 20.4744 158.894 20.9292C159.123 21.384 159.238 21.9264 159.238 22.5566V22.5674C159.238 23.2012 159.123 23.7454 158.894 24.2002C158.668 24.6549 158.344 25.0059 157.922 25.2529C157.503 25.4964 157 25.6182 156.412 25.6182ZM156.412 24.5332C156.72 24.5332 156.982 24.4562 157.197 24.3022C157.415 24.1447 157.582 23.9209 157.696 23.6309C157.811 23.3372 157.868 22.9845 157.868 22.5728V22.562C157.868 22.1466 157.811 21.7939 157.696 21.5039C157.582 21.2103 157.415 20.9865 157.197 20.8325C156.982 20.675 156.72 20.5962 156.412 20.5962C156.105 20.5962 155.841 20.675 155.623 20.8325C155.405 20.9865 155.238 21.2103 155.123 21.5039C155.009 21.7939 154.952 22.1466 154.952 22.562V22.5728C154.952 22.9845 155.009 23.3372 155.123 23.6309C155.238 23.9245 155.403 24.1483 155.618 24.3022C155.836 24.4562 156.101 24.5332 156.412 24.5332ZM162.659 25.6182C162.069 25.6182 161.564 25.4964 161.145 25.2529C160.726 25.0094 160.405 24.6585 160.183 24.2002C159.961 23.7419 159.85 23.194 159.85 22.5566V22.5459C159.85 21.9121 159.961 21.3696 160.183 20.9185C160.405 20.4673 160.726 20.1217 161.145 19.8818C161.564 19.6383 162.067 19.5166 162.654 19.5166C163.159 19.5166 163.592 19.6043 163.954 19.7798C164.319 19.9517 164.607 20.1916 164.819 20.4995C165.034 20.8039 165.166 21.1602 165.216 21.5684V21.5898H163.954L163.949 21.5737C163.888 21.2873 163.748 21.0527 163.53 20.8701C163.315 20.6875 163.025 20.5962 162.659 20.5962C162.355 20.5962 162.094 20.6732 161.875 20.8271C161.66 20.9811 161.496 21.2031 161.381 21.4932C161.267 21.7832 161.209 22.1341 161.209 22.5459V22.5566C161.209 22.972 161.267 23.3283 161.381 23.6255C161.499 23.9191 161.666 24.1447 161.881 24.3022C162.096 24.4562 162.355 24.5332 162.659 24.5332C163.007 24.5332 163.286 24.4544 163.497 24.2969C163.712 24.1393 163.861 23.9066 163.943 23.5986L163.954 23.5771L165.211 23.5718L165.205 23.6201C165.141 24.0176 165.001 24.3667 164.786 24.6675C164.575 24.9683 164.292 25.2028 163.938 25.3711C163.583 25.5358 163.157 25.6182 162.659 25.6182ZM166.103 25.5V17.3574H167.44V25.5H166.103ZM169.793 25.5L167.816 22.8359L168.81 22.0195L171.399 25.5H169.793ZM167.327 23.5557L167.279 22.041H167.532L169.696 19.6294H171.243L168.692 22.3096L168.079 22.7876L167.327 23.5557ZM173.972 25.6182C173.474 25.6182 173.044 25.5483 172.683 25.4087C172.325 25.2655 172.042 25.0685 171.834 24.8179C171.626 24.5636 171.503 24.27 171.464 23.937V23.9263H172.79L172.796 23.937C172.867 24.1411 173.001 24.3076 173.198 24.4365C173.395 24.5654 173.66 24.6299 173.993 24.6299C174.215 24.6299 174.411 24.5994 174.579 24.5386C174.747 24.4741 174.88 24.3864 174.976 24.2754C175.073 24.1644 175.121 24.0355 175.121 23.8887V23.8779C175.121 23.7061 175.051 23.5628 174.912 23.4482C174.772 23.3301 174.541 23.2352 174.219 23.1636L173.268 22.9487C172.896 22.8664 172.588 22.7518 172.344 22.605C172.101 22.4582 171.918 22.2773 171.797 22.0625C171.678 21.8477 171.619 21.597 171.619 21.3105V21.3052C171.619 20.9507 171.718 20.6392 171.915 20.3706C172.115 20.1021 172.393 19.8926 172.747 19.7422C173.102 19.5918 173.51 19.5166 173.972 19.5166C174.448 19.5166 174.858 19.5882 175.202 19.7314C175.546 19.8747 175.814 20.0716 176.008 20.3223C176.201 20.5729 176.312 20.8576 176.341 21.1763V21.187H175.084L175.078 21.1709C175.028 20.9847 174.908 20.8271 174.718 20.6982C174.532 20.5658 174.282 20.4995 173.967 20.4995C173.77 20.4995 173.592 20.5299 173.435 20.5908C173.281 20.6517 173.159 20.7376 173.07 20.8486C172.984 20.9561 172.941 21.0832 172.941 21.23V21.2354C172.941 21.3499 172.969 21.4502 173.027 21.5361C173.087 21.6221 173.182 21.6973 173.311 21.7617C173.44 21.8262 173.61 21.8835 173.821 21.9336L174.772 22.1431C175.349 22.272 175.775 22.4635 176.05 22.7178C176.326 22.972 176.464 23.314 176.464 23.7437V23.7544C176.464 24.1268 176.357 24.4526 176.142 24.7319C175.927 25.0112 175.632 25.2297 175.256 25.3872C174.88 25.5412 174.452 25.6182 173.972 25.6182Z" fill="#F5F6F7"></path>
<rect x="214" y="107" width="58.7353" height="24" rx="12" fill="#003B33"></rect>
<path d="M229.031 122.5V121.426H231.335C231.847 121.426 232.236 121.322 232.501 121.114C232.766 120.903 232.898 120.6 232.898 120.207V120.196C232.898 119.934 232.838 119.714 232.716 119.535C232.594 119.356 232.411 119.222 232.168 119.132C231.928 119.043 231.631 118.998 231.276 118.998H229.031V118.015H231.062C231.552 118.015 231.924 117.922 232.179 117.736C232.437 117.55 232.565 117.281 232.565 116.93V116.919C232.565 116.576 232.449 116.307 232.216 116.114C231.984 115.92 231.658 115.824 231.239 115.824H229.031V114.75H231.572C232.066 114.75 232.488 114.828 232.839 114.986C233.19 115.14 233.461 115.362 233.65 115.652C233.84 115.938 233.935 116.28 233.935 116.678V116.688C233.935 116.961 233.872 117.215 233.747 117.451C233.625 117.688 233.461 117.884 233.253 118.042C233.049 118.2 232.816 118.3 232.555 118.343V118.439C232.902 118.472 233.206 118.572 233.468 118.74C233.733 118.905 233.939 119.122 234.085 119.39C234.236 119.659 234.311 119.959 234.311 120.292V120.303C234.311 120.754 234.204 121.145 233.989 121.474C233.778 121.804 233.473 122.058 233.076 122.237C232.678 122.412 232.204 122.5 231.652 122.5H229.031ZM228.338 122.5V114.75H229.724V122.5H228.338ZM237.781 122.618C237.198 122.618 236.694 122.496 236.272 122.253C235.849 122.006 235.524 121.655 235.294 121.2C235.069 120.745 234.956 120.201 234.956 119.567V119.557C234.956 118.93 235.071 118.389 235.3 117.935C235.529 117.476 235.853 117.125 236.272 116.882C236.694 116.638 237.198 116.517 237.781 116.517C238.365 116.517 238.866 116.638 239.285 116.882C239.708 117.125 240.033 117.474 240.263 117.929C240.492 118.384 240.606 118.926 240.606 119.557V119.567C240.606 120.201 240.492 120.745 240.263 121.2C240.037 121.655 239.713 122.006 239.29 122.253C238.872 122.496 238.368 122.618 237.781 122.618ZM237.781 121.533C238.089 121.533 238.351 121.456 238.565 121.302C238.784 121.145 238.95 120.921 239.065 120.631C239.179 120.337 239.237 119.985 239.237 119.573V119.562C239.237 119.147 239.179 118.794 239.065 118.504C238.95 118.21 238.784 117.986 238.565 117.833C238.351 117.675 238.089 117.596 237.781 117.596C237.473 117.596 237.21 117.675 236.992 117.833C236.773 117.986 236.607 118.21 236.492 118.504C236.378 118.794 236.32 119.147 236.32 119.562V119.573C236.32 119.985 236.378 120.337 236.492 120.631C236.607 120.924 236.771 121.148 236.986 121.302C237.205 121.456 237.47 121.533 237.781 121.533ZM241.509 122.5V116.629H242.847V117.532H242.938C243.078 117.213 243.289 116.964 243.572 116.785C243.855 116.606 244.207 116.517 244.63 116.517C245.285 116.517 245.786 116.706 246.134 117.086C246.481 117.465 246.655 118.004 246.655 118.703V122.5H245.317V119.014C245.317 118.556 245.221 118.212 245.027 117.983C244.837 117.754 244.54 117.639 244.136 117.639C243.871 117.639 243.641 117.698 243.448 117.816C243.255 117.935 243.106 118.101 243.002 118.316C242.898 118.531 242.847 118.785 242.847 119.079V122.5H241.509ZM249.91 122.597C249.423 122.597 248.999 122.475 248.637 122.231C248.275 121.984 247.996 121.633 247.799 121.179C247.602 120.724 247.504 120.189 247.504 119.573V119.562C247.504 118.939 247.6 118.402 247.794 117.951C247.991 117.496 248.268 117.147 248.626 116.903C248.988 116.656 249.416 116.533 249.91 116.533C250.179 116.533 250.429 116.576 250.662 116.662C250.895 116.744 251.099 116.862 251.274 117.016C251.453 117.17 251.593 117.353 251.693 117.564H251.79V114.357H253.122V122.5H251.79V121.582H251.693C251.586 121.793 251.444 121.975 251.269 122.129C251.097 122.28 250.896 122.396 250.667 122.479C250.438 122.557 250.186 122.597 249.91 122.597ZM250.329 121.469C250.633 121.469 250.895 121.394 251.113 121.243C251.335 121.089 251.505 120.871 251.623 120.588C251.745 120.301 251.806 119.963 251.806 119.573V119.562C251.806 119.168 251.745 118.83 251.623 118.547C251.505 118.264 251.335 118.046 251.113 117.892C250.895 117.738 250.633 117.661 250.329 117.661C250.028 117.661 249.767 117.738 249.545 117.892C249.326 118.042 249.158 118.26 249.04 118.547C248.922 118.83 248.863 119.168 248.863 119.562V119.573C248.863 119.967 248.922 120.305 249.04 120.588C249.158 120.871 249.326 121.089 249.545 121.243C249.763 121.394 250.025 121.469 250.329 121.469ZM256.587 122.618C256.089 122.618 255.659 122.548 255.298 122.409C254.94 122.265 254.657 122.069 254.449 121.818C254.241 121.564 254.118 121.27 254.078 120.937V120.926H255.405L255.41 120.937C255.482 121.141 255.616 121.308 255.813 121.437C256.01 121.565 256.275 121.63 256.608 121.63C256.83 121.63 257.025 121.599 257.194 121.539C257.362 121.474 257.494 121.386 257.591 121.275C257.688 121.164 257.736 121.035 257.736 120.889V120.878C257.736 120.706 257.666 120.563 257.527 120.448C257.387 120.33 257.156 120.235 256.834 120.164L255.883 119.949C255.511 119.866 255.203 119.752 254.959 119.605C254.716 119.458 254.533 119.277 254.411 119.062C254.293 118.848 254.234 118.597 254.234 118.311V118.305C254.234 117.951 254.333 117.639 254.53 117.371C254.73 117.102 255.008 116.893 255.362 116.742C255.717 116.592 256.125 116.517 256.587 116.517C257.063 116.517 257.473 116.588 257.817 116.731C258.16 116.875 258.429 117.072 258.622 117.322C258.816 117.573 258.927 117.858 258.955 118.176V118.187H257.698L257.693 118.171C257.643 117.985 257.523 117.827 257.333 117.698C257.147 117.566 256.896 117.5 256.581 117.5C256.384 117.5 256.207 117.53 256.05 117.591C255.896 117.652 255.774 117.738 255.684 117.849C255.598 117.956 255.555 118.083 255.555 118.23V118.235C255.555 118.35 255.584 118.45 255.641 118.536C255.702 118.622 255.797 118.697 255.926 118.762C256.055 118.826 256.225 118.883 256.436 118.934L257.387 119.143C257.963 119.272 258.39 119.464 258.665 119.718C258.941 119.972 259.079 120.314 259.079 120.744V120.754C259.079 121.127 258.971 121.453 258.757 121.732C258.542 122.011 258.246 122.23 257.87 122.387C257.494 122.541 257.066 122.618 256.587 122.618Z" fill="#F5F6F7"></path>
<rect x="218" y="42" width="92.7353" height="24" rx="12" fill="#003B33"></rect>
<path d="M235.572 57.6934C234.838 57.6934 234.204 57.5286 233.67 57.1992C233.14 56.8698 232.73 56.4025 232.44 55.7974C232.154 55.1886 232.011 54.4671 232.011 53.6328V53.6221C232.011 52.7842 232.154 52.0627 232.44 51.4575C232.73 50.8488 233.14 50.3797 233.67 50.0503C234.2 49.7209 234.832 49.5562 235.566 49.5562C236.154 49.5562 236.684 49.6725 237.156 49.9053C237.629 50.1344 238.014 50.4531 238.311 50.8613C238.608 51.266 238.787 51.7314 238.848 52.2578L238.843 52.3008H237.489L237.484 52.2739C237.419 51.9696 237.298 51.7046 237.119 51.479C236.94 51.2498 236.718 51.0726 236.453 50.9473C236.188 50.8184 235.892 50.7539 235.566 50.7539C235.13 50.7539 234.75 50.8703 234.428 51.103C234.105 51.3358 233.857 51.667 233.681 52.0967C233.509 52.5228 233.423 53.0295 233.423 53.6167V53.6274C233.423 54.2147 233.509 54.7231 233.681 55.1528C233.857 55.5825 234.105 55.9137 234.428 56.1465C234.75 56.3792 235.131 56.4956 235.572 56.4956C235.901 56.4956 236.197 56.4383 236.458 56.3237C236.723 56.2091 236.943 56.048 237.119 55.8403C237.298 55.6291 237.419 55.382 237.484 55.0991L237.495 55.0669H238.848V55.1099C238.78 55.6255 238.599 56.0767 238.306 56.4634C238.012 56.8501 237.632 57.1527 237.167 57.3711C236.701 57.5859 236.17 57.6934 235.572 57.6934ZM242.351 57.6182C241.767 57.6182 241.264 57.4964 240.841 57.2529C240.419 57.0059 240.093 56.6549 239.864 56.2002C239.638 55.7454 239.525 55.2012 239.525 54.5674V54.5566C239.525 53.93 239.64 53.3893 239.869 52.9346C240.098 52.4762 240.422 52.1253 240.841 51.8818C241.264 51.6383 241.767 51.5166 242.351 51.5166C242.934 51.5166 243.435 51.6383 243.854 51.8818C244.277 52.1253 244.603 52.4744 244.832 52.9292C245.061 53.384 245.176 53.9264 245.176 54.5566V54.5674C245.176 55.2012 245.061 55.7454 244.832 56.2002C244.606 56.6549 244.282 57.0059 243.86 57.2529C243.441 57.4964 242.938 57.6182 242.351 57.6182ZM242.351 56.5332C242.658 56.5332 242.92 56.4562 243.135 56.3022C243.353 56.1447 243.52 55.9209 243.634 55.6309C243.749 55.3372 243.806 54.9845 243.806 54.5728V54.562C243.806 54.1466 243.749 53.7939 243.634 53.5039C243.52 53.2103 243.353 52.9865 243.135 52.8325C242.92 52.675 242.658 52.5962 242.351 52.5962C242.043 52.5962 241.779 52.675 241.561 52.8325C241.343 52.9865 241.176 53.2103 241.061 53.5039C240.947 53.7939 240.89 54.1466 240.89 54.562V54.5728C240.89 54.9845 240.947 55.3372 241.061 55.6309C241.176 55.9245 241.341 56.1483 241.556 56.3022C241.774 56.4562 242.039 56.5332 242.351 56.5332ZM246.078 57.5V51.6294H247.416V52.5425H247.507C247.633 52.2166 247.835 51.9642 248.114 51.7852C248.397 51.6061 248.732 51.5166 249.119 51.5166C249.384 51.5166 249.622 51.5596 249.833 51.6455C250.048 51.7314 250.232 51.8532 250.386 52.0107C250.54 52.1683 250.658 52.3563 250.741 52.5747H250.837C250.934 52.3634 251.068 52.179 251.24 52.0215C251.416 51.8604 251.62 51.7368 251.852 51.6509C252.089 51.5614 252.343 51.5166 252.615 51.5166C253.009 51.5166 253.346 51.5954 253.625 51.7529C253.908 51.9069 254.124 52.1289 254.275 52.4189C254.429 52.709 254.506 53.0563 254.506 53.4609V57.5H253.168V53.7886C253.168 53.5308 253.129 53.3177 253.05 53.1494C252.975 52.9811 252.859 52.854 252.701 52.7681C252.544 52.6821 252.345 52.6392 252.105 52.6392C251.872 52.6392 251.67 52.6929 251.498 52.8003C251.326 52.9041 251.192 53.0456 251.095 53.2246C251.002 53.4036 250.955 53.606 250.955 53.8315V57.5H249.618V53.6919C249.618 53.4735 249.575 53.2855 249.489 53.1279C249.407 52.9704 249.285 52.8504 249.124 52.7681C248.966 52.6821 248.778 52.6392 248.56 52.6392C248.342 52.6392 248.145 52.6965 247.969 52.811C247.797 52.922 247.661 53.076 247.561 53.2729C247.464 53.4663 247.416 53.6847 247.416 53.9282V57.5H246.078ZM255.639 57.5V51.6294H256.977V52.5425H257.068C257.194 52.2166 257.396 51.9642 257.675 51.7852C257.958 51.6061 258.293 51.5166 258.68 51.5166C258.944 51.5166 259.183 51.5596 259.394 51.6455C259.609 51.7314 259.793 51.8532 259.947 52.0107C260.101 52.1683 260.219 52.3563 260.302 52.5747H260.398C260.495 52.3634 260.629 52.179 260.801 52.0215C260.977 51.8604 261.181 51.7368 261.413 51.6509C261.65 51.5614 261.904 51.5166 262.176 51.5166C262.57 51.5166 262.907 51.5954 263.186 51.7529C263.469 51.9069 263.685 52.1289 263.836 52.4189C263.99 52.709 264.067 53.0563 264.067 53.4609V57.5H262.729V53.7886C262.729 53.5308 262.69 53.3177 262.611 53.1494C262.536 52.9811 262.42 52.854 262.262 52.7681C262.104 52.6821 261.906 52.6392 261.666 52.6392C261.433 52.6392 261.231 52.6929 261.059 52.8003C260.887 52.9041 260.753 53.0456 260.656 53.2246C260.563 53.4036 260.516 53.606 260.516 53.8315V57.5H259.179V53.6919C259.179 53.4735 259.136 53.2855 259.05 53.1279C258.968 52.9704 258.846 52.8504 258.685 52.7681C258.527 52.6821 258.339 52.6392 258.121 52.6392C257.902 52.6392 257.706 52.6965 257.53 52.811C257.358 52.922 257.222 53.076 257.122 53.2729C257.025 53.4663 256.977 53.6847 256.977 53.9282V57.5H255.639ZM267.736 57.6182C267.152 57.6182 266.649 57.4964 266.226 57.2529C265.804 57.0059 265.478 56.6549 265.249 56.2002C265.023 55.7454 264.91 55.2012 264.91 54.5674V54.5566C264.91 53.93 265.025 53.3893 265.254 52.9346C265.483 52.4762 265.807 52.1253 266.226 51.8818C266.649 51.6383 267.152 51.5166 267.736 51.5166C268.319 51.5166 268.821 51.6383 269.24 51.8818C269.662 52.1253 269.988 52.4744 270.217 52.9292C270.446 53.384 270.561 53.9264 270.561 54.5566V54.5674C270.561 55.2012 270.446 55.7454 270.217 56.2002C269.991 56.6549 269.667 57.0059 269.245 57.2529C268.826 57.4964 268.323 57.6182 267.736 57.6182ZM267.736 56.5332C268.044 56.5332 268.305 56.4562 268.52 56.3022C268.738 56.1447 268.905 55.9209 269.019 55.6309C269.134 55.3372 269.191 54.9845 269.191 54.5728V54.562C269.191 54.1466 269.134 53.7939 269.019 53.5039C268.905 53.2103 268.738 52.9865 268.52 52.8325C268.305 52.675 268.044 52.5962 267.736 52.5962C267.428 52.5962 267.164 52.675 266.946 52.8325C266.728 52.9865 266.561 53.2103 266.447 53.5039C266.332 53.7939 266.275 54.1466 266.275 54.562V54.5728C266.275 54.9845 266.332 55.3372 266.447 55.6309C266.561 55.9245 266.726 56.1483 266.941 56.3022C267.159 56.4562 267.424 56.5332 267.736 56.5332ZM273.58 57.5967C273.093 57.5967 272.668 57.4749 272.307 57.2314C271.945 56.9844 271.666 56.6335 271.469 56.1787C271.272 55.724 271.174 55.1886 271.174 54.5728V54.562C271.174 53.939 271.27 53.4019 271.464 52.9507C271.661 52.4959 271.938 52.1468 272.296 51.9033C272.658 51.6562 273.086 51.5327 273.58 51.5327C273.848 51.5327 274.099 51.5757 274.332 51.6616C274.564 51.744 274.769 51.8621 274.944 52.0161C275.123 52.1701 275.263 52.3527 275.363 52.564H275.46V49.3574H276.792V57.5H275.46V56.5815H275.363C275.256 56.7928 275.114 56.9754 274.939 57.1294C274.767 57.2798 274.566 57.3962 274.337 57.4785C274.108 57.5573 273.856 57.5967 273.58 57.5967ZM273.999 56.4688C274.303 56.4688 274.564 56.3936 274.783 56.2432C275.005 56.0892 275.175 55.8708 275.293 55.5879C275.415 55.3014 275.476 54.9631 275.476 54.5728V54.562C275.476 54.1681 275.415 53.8298 275.293 53.5469C275.175 53.264 275.005 53.0456 274.783 52.8916C274.564 52.7376 274.303 52.6606 273.999 52.6606C273.698 52.6606 273.437 52.7376 273.215 52.8916C272.996 53.042 272.828 53.2604 272.71 53.5469C272.592 53.8298 272.532 54.1681 272.532 54.562V54.5728C272.532 54.9666 272.592 55.305 272.71 55.5879C272.828 55.8708 272.996 56.0892 273.215 56.2432C273.433 56.3936 273.694 56.4688 273.999 56.4688ZM278.054 57.5V51.6294H279.386V57.5H278.054ZM278.726 50.6465C278.507 50.6465 278.319 50.5695 278.162 50.4155C278.004 50.2616 277.925 50.0771 277.925 49.8623C277.925 49.6403 278.004 49.4541 278.162 49.3037C278.319 49.1497 278.507 49.0728 278.726 49.0728C278.944 49.0728 279.13 49.1497 279.284 49.3037C279.442 49.4541 279.521 49.6403 279.521 49.8623C279.521 50.0771 279.442 50.2616 279.284 50.4155C279.13 50.5695 278.944 50.6465 278.726 50.6465ZM282.905 57.5269C282.232 57.5269 281.746 57.4033 281.449 57.1562C281.152 56.9092 281.003 56.5046 281.003 55.9424V52.666H280.09V51.6294H281.003V50.1899H282.362V51.6294H283.598V52.666H282.362V55.6255C282.362 55.9155 282.423 56.1286 282.545 56.2646C282.67 56.3971 282.871 56.4634 283.147 56.4634C283.243 56.4634 283.322 56.4616 283.383 56.458C283.447 56.4508 283.519 56.4437 283.598 56.4365V57.4678C283.505 57.4857 283.397 57.5 283.275 57.5107C283.157 57.5215 283.034 57.5269 282.905 57.5269ZM284.511 57.5V51.6294H285.843V57.5H284.511ZM285.183 50.6465C284.964 50.6465 284.776 50.5695 284.619 50.4155C284.461 50.2616 284.382 50.0771 284.382 49.8623C284.382 49.6403 284.461 49.4541 284.619 49.3037C284.776 49.1497 284.964 49.0728 285.183 49.0728C285.401 49.0728 285.587 49.1497 285.741 49.3037C285.899 49.4541 285.978 49.6403 285.978 49.8623C285.978 50.0771 285.899 50.2616 285.741 50.4155C285.587 50.5695 285.401 50.6465 285.183 50.6465ZM289.566 57.6182C288.982 57.6182 288.481 57.4946 288.062 57.2476C287.647 57.0005 287.326 56.6496 287.101 56.1948C286.875 55.7401 286.762 55.2012 286.762 54.5781V54.5728C286.762 53.9569 286.873 53.4198 287.095 52.9614C287.321 52.5031 287.639 52.1486 288.051 51.8979C288.463 51.6437 288.946 51.5166 289.501 51.5166C290.06 51.5166 290.54 51.6401 290.941 51.8872C291.346 52.1307 291.657 52.4727 291.875 52.9131C292.094 53.3535 292.203 53.8691 292.203 54.46V54.9004H287.434V54.0034H291.548L290.914 54.8413V54.3096C290.914 53.9193 290.855 53.5952 290.737 53.3374C290.619 53.0796 290.454 52.8862 290.243 52.7573C290.035 52.6284 289.793 52.564 289.518 52.564C289.242 52.564 288.997 52.632 288.782 52.7681C288.57 52.9006 288.402 53.0975 288.277 53.3589C288.155 53.6167 288.094 53.9336 288.094 54.3096V54.8467C288.094 55.2083 288.155 55.5181 288.277 55.7759C288.399 56.0301 288.57 56.2271 288.792 56.3667C289.018 56.5028 289.285 56.5708 289.593 56.5708C289.833 56.5708 290.039 56.5368 290.21 56.4688C290.386 56.3971 290.527 56.313 290.635 56.2163C290.742 56.116 290.817 56.0212 290.86 55.9316L290.876 55.894H292.144L292.133 55.9424C292.087 56.1322 292.001 56.3255 291.875 56.5225C291.754 56.7158 291.587 56.8966 291.376 57.0649C291.168 57.2297 290.914 57.3639 290.613 57.4678C290.312 57.568 289.963 57.6182 289.566 57.6182ZM295.319 57.6182C294.821 57.6182 294.391 57.5483 294.03 57.4087C293.672 57.2655 293.389 57.0685 293.181 56.8179C292.973 56.5636 292.85 56.27 292.81 55.937V55.9263H294.137L294.142 55.937C294.214 56.1411 294.348 56.3076 294.545 56.4365C294.742 56.5654 295.007 56.6299 295.34 56.6299C295.562 56.6299 295.757 56.5994 295.926 56.5386C296.094 56.4741 296.226 56.3864 296.323 56.2754C296.42 56.1644 296.468 56.0355 296.468 55.8887V55.8779C296.468 55.7061 296.398 55.5628 296.259 55.4482C296.119 55.3301 295.888 55.2352 295.566 55.1636L294.615 54.9487C294.243 54.8664 293.935 54.7518 293.691 54.605C293.448 54.4582 293.265 54.2773 293.143 54.0625C293.025 53.8477 292.966 53.597 292.966 53.3105V53.3052C292.966 52.9507 293.065 52.6392 293.262 52.3706C293.462 52.1021 293.74 51.8926 294.094 51.7422C294.449 51.5918 294.857 51.5166 295.319 51.5166C295.795 51.5166 296.205 51.5882 296.549 51.7314C296.892 51.8747 297.161 52.0716 297.354 52.3223C297.548 52.5729 297.659 52.8576 297.687 53.1763V53.187H296.431L296.425 53.1709C296.375 52.9847 296.255 52.8271 296.065 52.6982C295.879 52.5658 295.628 52.4995 295.313 52.4995C295.116 52.4995 294.939 52.5299 294.782 52.5908C294.628 52.6517 294.506 52.7376 294.416 52.8486C294.33 52.9561 294.287 53.0832 294.287 53.23V53.2354C294.287 53.3499 294.316 53.4502 294.373 53.5361C294.434 53.6221 294.529 53.6973 294.658 53.7617C294.787 53.8262 294.957 53.8835 295.168 53.9336L296.119 54.1431C296.696 54.272 297.122 54.4635 297.397 54.7178C297.673 54.972 297.811 55.314 297.811 55.7437V55.7544C297.811 56.1268 297.704 56.4526 297.489 56.7319C297.274 57.0112 296.978 57.2297 296.602 57.3872C296.226 57.5412 295.799 57.6182 295.319 57.6182Z" fill="#F5F6F7"></path>
<defs>
<clipPath id="clip0_115_984">
<rect width="189.142" height="123" fill="white" transform="translate(13 45)"></rect>
</clipPath>
</defs>
</svg>