<svg width="356" height="430" viewBox="0 0 356 430" fill="none" xmlns="http://www.w3.org/2000/svg">
<path d="M72.4857 365.733V371.147C72.4857 373.962 72.8274 376.341 73.5109 378.282C74.2217 380.196 75.2332 381.658 76.5455 382.67C77.8577 383.654 79.4571 384.146 81.3434 384.146C83.1204 384.146 84.6241 383.722 85.8543 382.875C87.1119 382.027 88.0551 380.879 88.6839 379.43C89.3127 377.981 89.627 376.341 89.627 374.509H104.964C104.964 374.865 104.964 375.234 104.964 375.616C104.964 375.999 104.964 376.382 104.964 376.765C104.964 380.893 103.939 384.501 101.888 387.591C99.8654 390.68 97.0632 393.086 93.4818 394.808C89.9004 396.503 85.7996 397.351 81.1794 397.351C75.7663 397.351 71.1734 396.271 67.4007 394.111C63.628 391.924 60.7711 388.862 58.83 384.925C56.889 380.988 55.9185 376.355 55.9185 371.023V365.774C55.9185 360.416 56.889 355.769 58.83 351.832C60.7711 347.895 63.628 344.847 67.4007 342.687C71.1734 340.527 75.7663 339.447 81.1794 339.447C84.6514 339.447 87.8364 339.939 90.7343 340.924C93.6595 341.88 96.1747 343.275 98.2797 345.106C100.412 346.911 102.052 349.084 103.201 351.627C104.376 354.169 104.964 357.012 104.964 360.156C104.964 360.539 104.964 360.908 104.964 361.264C104.964 361.619 104.964 361.988 104.964 362.371H89.627C89.627 360.512 89.3127 358.858 88.6839 357.409C88.0551 355.933 87.1119 354.771 85.8543 353.923C84.6241 353.076 83.1204 352.652 81.3434 352.652C79.4571 352.652 77.8577 353.158 76.5455 354.169C75.2332 355.153 74.2217 356.616 73.5109 358.557C72.8274 360.471 72.4857 362.863 72.4857 365.733ZM158.919 365.405C158.919 362.562 158.536 360.184 157.771 358.27C157.005 356.329 155.912 354.866 154.49 353.882C153.096 352.871 151.428 352.365 149.487 352.365C147.546 352.365 145.865 352.871 144.443 353.882C143.049 354.866 141.955 356.329 141.163 358.27C140.397 360.184 140.014 362.562 140.014 365.405V371.475C140.014 374.29 140.397 376.669 141.163 378.61C141.955 380.551 143.049 382 144.443 382.957C145.865 383.914 147.546 384.392 149.487 384.392C151.428 384.392 153.096 383.914 154.49 382.957C155.912 382 157.005 380.551 157.771 378.61C158.536 376.669 158.919 374.29 158.919 371.475V365.405ZM175.486 371.393C175.486 376.614 174.488 381.18 172.493 385.089C170.497 388.971 167.558 391.992 163.676 394.152C159.821 396.284 155.092 397.351 149.487 397.351C143.91 397.351 139.181 396.284 135.299 394.152C131.444 391.992 128.505 388.971 126.482 385.089C124.459 381.18 123.447 376.614 123.447 371.393V365.61C123.447 360.307 124.459 355.7 126.482 351.791C128.505 347.854 131.457 344.819 135.34 342.687C139.222 340.527 143.938 339.447 149.487 339.447C155.092 339.447 159.821 340.541 163.676 342.728C167.558 344.888 170.497 347.922 172.493 351.832C174.488 355.741 175.486 360.334 175.486 365.61V371.393ZM207.338 396.366L190.525 340.391H209.43L218.041 379.594H218.779L227.145 340.391H244.901L228.416 396.366H207.338ZM302.424 383.818V396.366H263.18V340.391H302.424V352.939H279.214V362.658H300.907V374.058H279.214V383.818H302.424Z" fill="white"/>
<mask id="path-2-inside-1_169_2348" fill="white">
<path d="M261.555 100.459C266.391 96.0218 266.75 88.4557 261.876 84.0591C242.545 66.6184 218.195 55.5305 192.141 52.4888C162.136 48.9859 131.873 56.3877 106.872 73.3436C81.8718 90.2994 63.801 115.679 55.9575 144.851C48.1141 174.023 51.0208 205.043 64.1473 232.25C77.2738 259.457 99.7449 281.037 127.46 293.054C155.176 305.07 186.287 306.72 215.119 297.704C243.95 288.688 268.578 269.606 284.51 243.941C298.344 221.655 304.82 195.694 303.199 169.709C302.791 163.158 296.646 158.729 290.163 159.753V159.753C283.68 160.777 279.327 166.87 279.592 173.428C280.411 193.756 275.14 213.967 264.316 231.406C251.392 252.226 231.413 267.705 208.025 275.019C184.636 282.333 159.398 280.994 136.915 271.247C114.432 261.499 96.2028 243.992 85.5544 221.922C74.906 199.851 72.548 174.687 78.9108 151.022C85.2735 127.358 99.9328 106.769 120.214 93.0145C140.494 79.2597 165.045 73.2552 189.385 76.0969C209.771 78.4769 228.871 86.9298 244.273 100.223C249.242 104.511 256.719 104.896 261.555 100.459V100.459Z"/>
</mask>
<path d="M261.555 100.459C266.391 96.0218 266.75 88.4557 261.876 84.0591C242.545 66.6184 218.195 55.5305 192.141 52.4888C162.136 48.9859 131.873 56.3877 106.872 73.3436C81.8718 90.2994 63.801 115.679 55.9575 144.851C48.1141 174.023 51.0208 205.043 64.1473 232.25C77.2738 259.457 99.7449 281.037 127.46 293.054C155.176 305.07 186.287 306.72 215.119 297.704C243.95 288.688 268.578 269.606 284.51 243.941C298.344 221.655 304.82 195.694 303.199 169.709C302.791 163.158 296.646 158.729 290.163 159.753V159.753C283.68 160.777 279.327 166.87 279.592 173.428C280.411 193.756 275.14 213.967 264.316 231.406C251.392 252.226 231.413 267.705 208.025 275.019C184.636 282.333 159.398 280.994 136.915 271.247C114.432 261.499 96.2028 243.992 85.5544 221.922C74.906 199.851 72.548 174.687 78.9108 151.022C85.2735 127.358 99.9328 106.769 120.214 93.0145C140.494 79.2597 165.045 73.2552 189.385 76.0969C209.771 78.4769 228.871 86.9298 244.273 100.223C249.242 104.511 256.719 104.896 261.555 100.459V100.459Z" fill="white" stroke="white" stroke-width="8.46398" mask="url(#path-2-inside-1_169_2348)"/>
<mask id="path-3-inside-2_169_2348" fill="white">
<path d="M117.971 231.392C114.51 234.438 114.148 239.747 117.507 242.906C130.832 255.438 147.774 263.58 166.029 266.095C187.053 268.992 208.418 264.234 226.225 252.688C244.032 241.142 257.093 223.578 263.027 203.202C268.961 182.826 267.37 160.995 258.546 141.694C249.722 122.393 234.252 106.909 214.96 98.0654C195.668 89.2222 173.839 87.6102 153.457 93.5237C133.075 99.4371 115.499 112.482 103.935 130.277C93.8939 145.73 88.9678 163.87 89.7279 182.146C89.9195 186.753 94.1713 189.953 98.7399 189.328V189.328C103.308 188.703 106.454 184.487 106.364 179.877C106.084 165.586 110.08 151.467 117.937 139.376C127.317 124.94 141.576 114.358 158.11 109.561C174.644 104.764 192.352 106.071 208.002 113.245C223.652 120.419 236.201 132.98 243.36 148.638C250.518 164.295 251.808 182.004 246.995 198.533C242.181 215.063 231.585 229.31 217.14 238.677C202.695 248.043 185.364 251.903 168.309 249.553C154.024 247.585 140.731 241.37 130.107 231.809C126.679 228.725 121.433 228.345 117.971 231.392V231.392Z"/>
</mask>
<path d="M117.971 231.392C114.51 234.438 114.148 239.747 117.507 242.906C130.832 255.438 147.774 263.58 166.029 266.095C187.053 268.992 208.418 264.234 226.225 252.688C244.032 241.142 257.093 223.578 263.027 203.202C268.961 182.826 267.37 160.995 258.546 141.694C249.722 122.393 234.252 106.909 214.96 98.0654C195.668 89.2222 173.839 87.6102 153.457 93.5237C133.075 99.4371 115.499 112.482 103.935 130.277C93.8939 145.73 88.9678 163.87 89.7279 182.146C89.9195 186.753 94.1713 189.953 98.7399 189.328V189.328C103.308 188.703 106.454 184.487 106.364 179.877C106.084 165.586 110.08 151.467 117.937 139.376C127.317 124.94 141.576 114.358 158.11 109.561C174.644 104.764 192.352 106.071 208.002 113.245C223.652 120.419 236.201 132.98 243.36 148.638C250.518 164.295 251.808 182.004 246.995 198.533C242.181 215.063 231.585 229.31 217.14 238.677C202.695 248.043 185.364 251.903 168.309 249.553C154.024 247.585 140.731 241.37 130.107 231.809C126.679 228.725 121.433 228.345 117.971 231.392V231.392Z" fill="white" stroke="white" stroke-width="5.94631" mask="url(#path-3-inside-2_169_2348)"/>
<circle cx="107.121" cy="209.384" r="10.2832" transform="rotate(-49.3408 107.121 209.384)" fill="white"/>
<circle cx="277.626" cy="133.617" r="14.6371" transform="rotate(-49.3408 277.626 133.617)" fill="white"/>
<circle cx="200.919" cy="169.671" r="33.2303" transform="rotate(70.6592 200.919 169.671)" stroke="white" stroke-width="12.1976"/>
</svg>
