<svg width="80" height="80" viewBox="0 0 80 80" fill="none" xmlns="http://www.w3.org/2000/svg">
<circle cx="40.1232" cy="40.4588" r="24.3165" transform="rotate(30 40.1232 40.4588)" fill="#9966FF"></circle>
<mask id="path-2-inside-1_81_1068" fill="white">
<path d="M44.2921 4.03094C44.5392 1.96036 43.0593 0.0627079 40.9746 0.0118628C32.7052 -0.189832 24.5412 2.17844 17.6322 6.83865C9.67566 12.2055 3.91396 20.2541 1.39846 29.5159C-1.11703 38.7778 -0.218611 48.6353 3.92978 57.2898C8.07818 65.9443 15.2 72.8187 23.9956 76.6587C32.7913 80.4987 42.6744 81.0483 51.8416 78.2071C61.0088 75.3659 68.8488 69.3234 73.9311 61.1822C79.0134 53.041 80.9992 43.3438 79.526 33.8602C78.2468 25.6252 74.4336 18.0279 68.6639 12.1004C67.2094 10.6062 64.8117 10.8109 63.4611 12.3997C62.1106 13.9886 62.3228 16.3578 63.7441 17.8837C68.1497 22.6134 71.0632 28.5757 72.0641 35.0193C73.2591 42.7126 71.6483 50.579 67.5254 57.1833C63.4026 63.7876 57.0426 68.6894 49.6061 70.9942C42.1696 73.299 34.1522 72.8532 27.017 69.7381C19.8819 66.623 14.1046 61.0464 10.7393 54.0257C7.37409 47.0051 6.64528 39.0085 8.68588 31.4952C10.7265 23.9819 15.4005 17.4527 21.8549 13.099C27.261 9.45256 33.6143 7.53592 40.0779 7.5515C42.1632 7.55653 44.045 6.10152 44.2921 4.03094Z"></path>
</mask>
<path d="M44.2921 4.03094C44.5392 1.96036 43.0593 0.0627079 40.9746 0.0118628C32.7052 -0.189832 24.5412 2.17844 17.6322 6.83865C9.67566 12.2055 3.91396 20.2541 1.39846 29.5159C-1.11703 38.7778 -0.218611 48.6353 3.92978 57.2898C8.07818 65.9443 15.2 72.8187 23.9956 76.6587C32.7913 80.4987 42.6744 81.0483 51.8416 78.2071C61.0088 75.3659 68.8488 69.3234 73.9311 61.1822C79.0134 53.041 80.9992 43.3438 79.526 33.8602C78.2468 25.6252 74.4336 18.0279 68.6639 12.1004C67.2094 10.6062 64.8117 10.8109 63.4611 12.3997C62.1106 13.9886 62.3228 16.3578 63.7441 17.8837C68.1497 22.6134 71.0632 28.5757 72.0641 35.0193C73.2591 42.7126 71.6483 50.579 67.5254 57.1833C63.4026 63.7876 57.0426 68.6894 49.6061 70.9942C42.1696 73.299 34.1522 72.8532 27.017 69.7381C19.8819 66.623 14.1046 61.0464 10.7393 54.0257C7.37409 47.0051 6.64528 39.0085 8.68588 31.4952C10.7265 23.9819 15.4005 17.4527 21.8549 13.099C27.261 9.45256 33.6143 7.53592 40.0779 7.5515C42.1632 7.55653 44.045 6.10152 44.2921 4.03094Z" fill="#9966FF" stroke="#9966FF" stroke-width="4.33613" mask="url(#path-2-inside-1_81_1068)"></path>
<circle cx="37.7355" cy="40.2277" r="4.5042" fill="#161616"></circle>
<circle cx="55.7521" cy="40.2277" r="4.5042" fill="#161616"></circle>
</svg>