<svg width="80" height="80" viewBox="0 0 80 80" fill="none" xmlns="http://www.w3.org/2000/svg">
<circle cx="40.1231" cy="40.4588" r="24.3165" transform="rotate(30 40.1231 40.4588)" fill="#00A991"></circle>
<mask id="path-2-inside-1_81_1037" fill="white">
<path d="M44.292 4.03094C44.5391 1.96036 43.0592 0.0627079 40.9746 0.0118628C32.7051 -0.189832 24.5411 2.17844 17.6322 6.83865C9.6756 12.2055 3.9139 20.2541 1.3984 29.5159C-1.11709 38.7778 -0.218673 48.6353 3.92972 57.2898C8.07812 65.9443 15.1999 72.8187 23.9956 76.6587C32.7912 80.4987 42.6744 81.0483 51.8415 78.2071C61.0087 75.3659 68.8488 69.3234 73.9311 61.1822C79.0134 53.041 80.9991 43.3438 79.526 33.8602C78.2468 25.6252 74.4335 18.0279 68.6638 12.1004C67.2094 10.6062 64.8116 10.8109 63.4611 12.3997C62.1105 13.9886 62.3228 16.3578 63.7441 17.8837C68.1496 22.6134 71.0631 28.5757 72.064 35.0193C73.2591 42.7126 71.6482 50.579 67.5254 57.1833C63.4025 63.7876 57.0426 68.6894 49.606 70.9942C42.1695 73.299 34.1522 72.8532 27.017 69.7381C19.8818 66.623 14.1045 61.0464 10.7393 54.0257C7.37403 47.0051 6.64522 39.0085 8.68582 31.4952C10.7264 23.9819 15.4004 17.4527 21.8549 13.099C27.261 9.45256 33.6142 7.53592 40.0779 7.5515C42.1631 7.55653 44.045 6.10152 44.292 4.03094Z"></path>
</mask>
<path d="M44.292 4.03094C44.5391 1.96036 43.0592 0.0627079 40.9746 0.0118628C32.7051 -0.189832 24.5411 2.17844 17.6322 6.83865C9.6756 12.2055 3.9139 20.2541 1.3984 29.5159C-1.11709 38.7778 -0.218673 48.6353 3.92972 57.2898C8.07812 65.9443 15.1999 72.8187 23.9956 76.6587C32.7912 80.4987 42.6744 81.0483 51.8415 78.2071C61.0087 75.3659 68.8488 69.3234 73.9311 61.1822C79.0134 53.041 80.9991 43.3438 79.526 33.8602C78.2468 25.6252 74.4335 18.0279 68.6638 12.1004C67.2094 10.6062 64.8116 10.8109 63.4611 12.3997C62.1105 13.9886 62.3228 16.3578 63.7441 17.8837C68.1496 22.6134 71.0631 28.5757 72.064 35.0193C73.2591 42.7126 71.6482 50.579 67.5254 57.1833C63.4025 63.7876 57.0426 68.6894 49.606 70.9942C42.1695 73.299 34.1522 72.8532 27.017 69.7381C19.8818 66.623 14.1045 61.0464 10.7393 54.0257C7.37403 47.0051 6.64522 39.0085 8.68582 31.4952C10.7264 23.9819 15.4004 17.4527 21.8549 13.099C27.261 9.45256 33.6142 7.53592 40.0779 7.5515C42.1631 7.55653 44.045 6.10152 44.292 4.03094Z" fill="#00A991" stroke="#00A991" stroke-width="4.33613" mask="url(#path-2-inside-1_81_1037)"></path>
<circle cx="37.7354" cy="40.2277" r="4.5042" fill="#161616"></circle>
<circle cx="55.752" cy="40.2277" r="4.5042" fill="#161616"></circle>
</svg>