<svg width="129" height="129" viewBox="0 0 129 129" fill="none" xmlns="http://www.w3.org/2000/svg">
<circle cx="64.6986" cy="65.2399" r="39.2104" transform="rotate(30 64.6986 65.2399)" fill="#FF6540"/>
<mask id="path-2-inside-1_163_2342" fill="white">
<path d="M71.4209 6.50003C71.8193 3.16123 69.433 0.101262 66.0715 0.0192745C52.737 -0.305959 39.5726 3.51288 28.4318 11.0275C15.6019 19.6814 6.31116 32.6599 2.25492 47.5946C-1.80131 62.5293 -0.352609 78.4246 6.33668 92.38C13.026 106.335 24.5099 117.42 38.6929 123.612C52.8759 129.804 68.8124 130.691 83.5945 126.109C98.3765 121.528 111.019 111.784 119.214 98.6564C127.409 85.5287 130.611 69.892 128.236 54.5997C126.173 41.3208 120.024 29.0702 110.72 19.5121C108.375 17.1026 104.509 17.4327 102.331 19.9947V19.9947C100.153 22.5567 100.495 26.3771 102.787 28.8376C109.891 36.4642 114.589 46.0784 116.203 56.4688C118.13 68.8742 115.533 81.5589 108.885 92.2082C102.237 102.858 91.9811 110.762 79.9897 114.478C67.9983 118.195 55.0704 117.476 43.5649 112.453C32.0594 107.43 22.7435 98.4375 17.3171 87.1167C11.8906 75.7959 10.7154 62.9014 14.0059 50.7861C17.2964 38.6709 24.8332 28.1426 35.241 21.1223C43.9583 15.2424 54.2029 12.1518 64.6256 12.1769C67.988 12.1851 71.0225 9.83884 71.4209 6.50003V6.50003Z"/>
</mask>
<path d="M71.4209 6.50003C71.8193 3.16123 69.433 0.101262 66.0715 0.0192745C52.737 -0.305959 39.5726 3.51288 28.4318 11.0275C15.6019 19.6814 6.31116 32.6599 2.25492 47.5946C-1.80131 62.5293 -0.352609 78.4246 6.33668 92.38C13.026 106.335 24.5099 117.42 38.6929 123.612C52.8759 129.804 68.8124 130.691 83.5945 126.109C98.3765 121.528 111.019 111.784 119.214 98.6564C127.409 85.5287 130.611 69.892 128.236 54.5997C126.173 41.3208 120.024 29.0702 110.72 19.5121C108.375 17.1026 104.509 17.4327 102.331 19.9947V19.9947C100.153 22.5567 100.495 26.3771 102.787 28.8376C109.891 36.4642 114.589 46.0784 116.203 56.4688C118.13 68.8742 115.533 81.5589 108.885 92.2082C102.237 102.858 91.9811 110.762 79.9897 114.478C67.9983 118.195 55.0704 117.476 43.5649 112.453C32.0594 107.43 22.7435 98.4375 17.3171 87.1167C11.8906 75.7959 10.7154 62.9014 14.0059 50.7861C17.2964 38.6709 24.8332 28.1426 35.241 21.1223C43.9583 15.2424 54.2029 12.1518 64.6256 12.1769C67.988 12.1851 71.0225 9.83884 71.4209 6.50003V6.50003Z" fill="#FF6540" stroke="#FF6540" stroke-width="4.33613" mask="url(#path-2-inside-1_163_2342)"/>
<path d="M92 79.0002C89.9459 82.0187 84.6703 86.2446 80 79.0002" stroke="#161616" stroke-width="5" stroke-linecap="round"/>
<path d="M64 79.0002C61.9459 82.0187 56.6703 86.2446 52 79.0002" stroke="#161616" stroke-width="5" stroke-linecap="round"/>
</svg>
