<svg width="317" height="168" viewBox="0 0 317 168" fill="none" xmlns="http://www.w3.org/2000/svg">
<rect width="317" height="168" rx="15.4137" fill="#F5F6F7"/>
<g clip-path="url(#clip0_153_2233)">
<path d="M169.728 45H42.9097V119.519H169.728V45Z" fill="#8993A4"/>
<path d="M160.55 54.9109H52.6133V108.212H160.55V54.9109Z" fill="#243757"/>
<path fill-rule="evenodd" clip-rule="evenodd" d="M42.9096 45V119.519C3.03145 119.519 3.03145 45 42.9096 45Z" fill="#5D6B82"/>
<path fill-rule="evenodd" clip-rule="evenodd" d="M33.7943 56.8621C32.4597 57.6185 31.2022 58.5676 30.0218 59.7432C18.5407 71.1713 19.2971 99.2888 33.7943 107.556V56.8621Z" fill="#243757"/>
<path d="M104.396 116.839H42.9097V188.352H104.396V116.839Z" fill="#5D6B82"/>
<path d="M95.1796 127.57H52.1265V177.629H95.1796V127.57Z" fill="#8993A4"/>
<path d="M202.639 116.839H104.397V188.352H202.639V116.839Z" fill="#8993A4"/>
<path d="M192.7 127.57H114.697V177.629H192.7V127.57Z" fill="#C2C7D0"/>
<path fill-rule="evenodd" clip-rule="evenodd" d="M114.697 170.555H192.7V172.786H114.697V170.555ZM114.697 139.72H192.7V141.941H114.697V139.72ZM114.697 150.098H192.7V152.319H114.697V150.098ZM114.697 160.534H192.7V162.764H114.697V160.534Z" fill="#243757"/>
<path fill-rule="evenodd" clip-rule="evenodd" d="M52.1265 170.555H95.1796V172.786H52.1265V170.555ZM52.1265 139.72H95.1796V141.941H52.1265V139.72ZM52.1265 150.098H95.1796V152.319H52.1265V150.098ZM52.1265 160.534H95.1796V162.764H52.1265V160.534Z" fill="#243757"/>
<path d="M55.7206 127.57H52.1265V177.629H55.7206V127.57Z" fill="#243757"/>
<path d="M192.7 127.57H189.115V177.629H192.7V127.57Z" fill="#243757"/>
<path fill-rule="evenodd" clip-rule="evenodd" d="M113.054 120.647C112.032 120.647 111.493 121.847 112.167 122.613C112.394 122.873 112.717 123.017 113.054 123.017H115.419C116.441 123.017 116.98 121.818 116.306 121.042C116.08 120.796 115.757 120.647 115.419 120.647H113.054ZM110.895 128.25C110.895 127.228 109.696 126.689 108.92 127.363C108.674 127.58 108.525 127.912 108.525 128.25V130.615C108.525 131.627 109.725 132.176 110.5 131.492C110.751 131.275 110.891 130.943 110.891 130.615V128.25H110.895ZM110.895 144.828C110.895 143.807 109.696 143.267 108.92 143.942C108.674 144.168 108.525 144.491 108.525 144.828V147.194C108.525 148.206 109.725 148.755 110.5 148.08C110.751 147.854 110.891 147.531 110.891 147.194V144.828H110.895ZM110.895 161.402C110.895 160.38 109.696 159.841 108.92 160.515C108.674 160.742 108.525 161.065 108.525 161.402V163.767C108.525 164.789 109.725 165.328 110.5 164.654C110.751 164.428 110.891 164.105 110.891 163.767V161.402H110.895ZM110.895 177.976C110.895 176.964 109.696 176.415 108.92 177.084C108.674 177.311 108.525 177.634 108.525 177.976C108.525 178.698 108.453 179.72 108.568 180.505C108.67 181.218 109.373 181.671 110.067 181.478C110.645 181.314 110.997 180.765 110.915 180.177C110.823 179.474 110.895 178.66 110.895 177.976ZM122.468 182.052C121.456 182.052 120.907 183.251 121.591 184.027C121.808 184.273 122.14 184.417 122.468 184.417H124.834C125.855 184.417 126.395 183.218 125.725 182.442C125.508 182.196 125.176 182.052 124.834 182.052H122.468ZM139.047 182.052C138.035 182.052 137.486 183.251 138.17 184.027C138.387 184.273 138.719 184.417 139.047 184.417H141.422C142.434 184.417 142.983 183.218 142.299 182.442C142.082 182.196 141.75 182.052 141.422 182.052H139.047ZM155.63 182.052C154.609 182.052 154.059 183.251 154.744 184.027C154.96 184.273 155.293 184.417 155.63 184.417H157.996C159.007 184.417 159.557 183.218 158.872 182.442C158.656 182.196 158.323 182.052 157.996 182.052H155.63ZM172.209 182.052C171.187 182.052 170.648 183.251 171.322 184.027C171.548 184.273 171.871 184.417 172.209 184.417H174.574C175.586 184.417 176.135 183.218 175.461 182.442C175.234 182.196 174.911 182.052 174.574 182.052H172.209ZM188.782 182.052C187.761 182.052 187.221 183.251 187.896 184.027C188.122 184.273 188.445 184.417 188.782 184.417H191.148C192.16 184.417 192.709 183.218 192.034 182.442C191.808 182.196 191.485 182.052 191.148 182.052H188.782ZM196.255 173.876C196.255 174.887 197.455 175.437 198.221 174.752C198.481 174.536 198.625 174.203 198.625 173.876V171.5C198.625 170.489 197.416 169.939 196.65 170.623C196.399 170.84 196.255 171.173 196.255 171.5V173.876ZM196.255 157.287C196.255 158.309 197.455 158.858 198.221 158.174C198.481 157.957 198.625 157.625 198.625 157.287V154.922C198.625 153.91 197.416 153.361 196.65 154.045C196.399 154.262 196.255 154.594 196.255 154.922V157.287ZM196.255 140.714C196.255 141.735 197.455 142.275 198.221 141.605C198.481 141.379 198.625 141.056 198.625 140.714V138.348C198.625 137.336 197.416 136.787 196.65 137.462C196.399 137.688 196.255 138.011 196.255 138.348V140.714ZM196.149 124.521C196.284 124.954 196.655 125.262 197.098 125.325C197.965 125.45 198.669 124.622 198.399 123.783C198.057 122.752 197.387 121.89 196.467 121.312C195.99 121.023 195.392 121.095 194.997 121.49C194.458 122.039 194.573 122.926 195.214 123.331C195.657 123.62 195.98 124.024 196.144 124.521H196.149ZM181.734 123.013C182.745 123.013 183.295 121.813 182.61 121.037C182.394 120.791 182.061 120.642 181.734 120.642H179.358C178.347 120.642 177.797 121.842 178.481 122.608C178.698 122.868 179.031 123.013 179.358 123.013H181.734ZM165.15 123.013C166.172 123.013 166.721 121.813 166.037 121.037C165.82 120.791 165.488 120.642 165.15 120.642H162.785C161.773 120.642 161.224 121.842 161.908 122.608C162.125 122.868 162.457 123.013 162.785 123.013H165.15ZM148.572 123.013C149.593 123.013 150.133 121.813 149.458 121.037C149.232 120.791 148.909 120.642 148.572 120.642H146.206C145.194 120.642 144.645 121.842 145.32 122.608C145.546 122.868 145.878 123.013 146.206 123.013H148.572ZM131.998 123.013C133.019 123.013 133.559 121.813 132.885 121.037C132.658 120.791 132.335 120.642 131.998 120.642H129.632C128.621 120.642 128.071 121.842 128.746 122.608C128.972 122.868 129.295 123.013 129.632 123.013H131.998Z" fill="#C2C7D0"/>
<path fill-rule="evenodd" clip-rule="evenodd" d="M97.2126 123.013C98.2244 123.013 98.7737 121.813 98.0992 121.037C97.8727 120.791 97.5499 120.642 97.2126 120.642H94.847C93.8256 120.642 93.286 121.842 93.9605 122.608C94.187 122.868 94.5098 123.013 94.847 123.013H97.2126ZM101.284 126.453C101.284 125.431 100.084 124.892 99.3181 125.566C99.0579 125.792 98.9134 126.115 98.9134 126.453V128.818C98.9134 129.83 100.123 130.379 100.889 129.705C101.134 129.478 101.279 129.155 101.279 128.818V126.453H101.284ZM101.284 143.026C101.284 142.005 100.084 141.465 99.3181 142.14C99.0579 142.366 98.9134 142.689 98.9134 143.026V145.392C98.9134 146.413 100.123 146.953 100.889 146.278C101.134 146.052 101.279 145.729 101.279 145.392V143.026H101.284ZM101.284 159.605C101.284 158.593 100.084 158.044 99.3181 158.718C99.0579 158.945 98.9134 159.268 98.9134 159.605V161.97C98.9134 162.992 100.123 163.531 100.889 162.857C101.134 162.63 101.279 162.308 101.279 161.97V159.605H101.284ZM101.284 176.178C101.284 175.167 100.084 174.617 99.3181 175.302C99.0579 175.518 98.9134 175.851 98.9134 176.178V178.544C98.9134 179.566 100.123 180.105 100.889 179.431C101.134 179.214 101.279 178.881 101.279 178.544V176.178H101.284ZM89.3401 184.417C90.3519 184.417 90.9011 183.218 90.217 182.442C90.0002 182.196 89.6677 182.052 89.3401 182.052H86.9649C85.9531 182.052 85.4039 183.251 86.088 184.027C86.3048 184.273 86.6373 184.417 86.9649 184.417H89.3401ZM72.752 184.417C73.7734 184.417 74.3226 183.218 73.6385 182.442C73.4217 182.196 73.0892 182.052 72.752 182.052H70.3863C69.3746 182.052 68.8253 183.251 69.5095 184.027C69.7263 184.273 70.0587 184.417 70.3863 184.417H72.752ZM56.1782 184.417C57.1996 184.417 57.7393 183.218 57.0647 182.442C56.8383 182.196 56.5155 182.052 56.1782 182.052H53.8126C52.8009 182.052 52.2516 183.251 52.9213 184.027C53.1478 184.273 53.4706 184.417 53.8126 184.417H56.1782ZM45.7715 174.642C45.7715 175.663 46.9712 176.203 47.7372 175.528C47.9974 175.302 48.1419 174.979 48.1419 174.642V172.276C48.1419 171.255 46.9326 170.715 46.1666 171.389C45.916 171.616 45.7715 171.939 45.7715 172.276V174.642ZM45.7715 158.063C45.7715 159.075 46.9712 159.624 47.7372 158.95C47.9974 158.723 48.1419 158.4 48.1419 158.063V155.697C48.1419 154.676 46.9326 154.136 46.1666 154.811C45.916 155.037 45.7715 155.36 45.7715 155.697V158.063ZM45.7715 141.489C45.7715 142.501 46.9712 143.05 47.7372 142.376C47.9974 142.149 48.1419 141.817 48.1419 141.489V139.124C48.1419 138.102 46.9326 137.563 46.1666 138.237C45.916 138.464 45.7715 138.786 45.7715 139.124V141.489ZM45.7715 124.911C45.7715 125.923 46.9712 126.472 47.7372 125.788C47.9974 125.571 48.1419 125.238 48.1419 124.911V124.713C48.1419 124.28 48.2961 123.875 48.6044 123.557C49.3271 122.772 48.749 121.519 47.6938 121.562C47.3759 121.572 47.0964 121.697 46.8796 121.924C46.1666 122.69 45.7715 123.668 45.7715 124.713V124.911ZM61.6851 120.647C60.6734 120.647 60.1241 121.847 60.8083 122.613C61.0251 122.873 61.3575 123.017 61.6851 123.017H64.0604C65.0722 123.017 65.6214 121.818 64.9373 121.042C64.7205 120.796 64.388 120.647 64.0604 120.647H61.6851ZM78.2733 120.647C77.2519 120.647 76.7123 121.847 77.3868 122.613C77.6133 122.873 77.9361 123.017 78.2733 123.017H80.6389C81.6507 123.017 82.1999 121.818 81.5254 121.042C81.299 120.796 80.9665 120.647 80.6389 120.647H78.2733Z" fill="#8993A4"/>
<mask id="mask0_153_2233" style="mask-type:alpha" maskUnits="userSpaceOnUse" x="77" y="45" width="122" height="72">
<rect x="77" y="45" width="121.84" height="71.9434" fill="#D9D9D9"/>
</mask>
<g mask="url(#mask0_153_2233)">
<circle cx="137.374" cy="97.39" r="27.511" transform="rotate(10.5343 137.374 97.39)" fill="#00A991"/>
<mask id="path-18-inside-1_153_2233" fill="white">
<path d="M128.086 56.9592C127.569 54.6574 125.274 53.1911 123.032 53.9228C114.135 56.8254 106.319 62.4296 100.706 70.0055C94.2422 78.73 91.1307 89.4878 91.9393 100.316C92.7479 111.144 97.4227 121.32 105.111 128.988C112.799 136.656 122.987 141.303 133.817 142.083C144.648 142.863 155.397 139.724 164.105 133.237C172.812 126.75 178.897 117.348 181.249 106.748C183.601 96.1476 182.063 85.055 176.916 75.4942C172.447 67.1922 165.515 60.5259 157.125 56.3783C155.011 55.3327 152.53 56.4551 151.688 58.6591V58.6591C150.847 60.8631 151.966 63.3103 154.058 64.4021C160.54 67.7863 165.896 73.0479 169.393 79.5439C173.569 87.2998 174.816 96.2983 172.908 104.897C171 113.497 166.064 121.123 159 126.385C151.937 131.648 143.217 134.195 134.431 133.562C125.646 132.929 117.38 129.159 111.144 122.939C104.907 116.719 101.115 108.463 100.459 99.6796C99.8031 90.8957 102.327 82.1689 107.571 75.0914C111.963 69.1635 118.017 64.7237 124.918 62.3034C127.144 61.5226 128.603 59.261 128.086 56.9592V56.9592Z"/>
</mask>
<path d="M128.086 56.9592C127.569 54.6574 125.274 53.1911 123.032 53.9228C114.135 56.8254 106.319 62.4296 100.706 70.0055C94.2422 78.73 91.1307 89.4878 91.9393 100.316C92.7479 111.144 97.4227 121.32 105.111 128.988C112.799 136.656 122.987 141.303 133.817 142.083C144.648 142.863 155.397 139.724 164.105 133.237C172.812 126.75 178.897 117.348 181.249 106.748C183.601 96.1476 182.063 85.055 176.916 75.4942C172.447 67.1922 165.515 60.5259 157.125 56.3783C155.011 55.3327 152.53 56.4551 151.688 58.6591V58.6591C150.847 60.8631 151.966 63.3103 154.058 64.4021C160.54 67.7863 165.896 73.0479 169.393 79.5439C173.569 87.2998 174.816 96.2983 172.908 104.897C171 113.497 166.064 121.123 159 126.385C151.937 131.648 143.217 134.195 134.431 133.562C125.646 132.929 117.38 129.159 111.144 122.939C104.907 116.719 101.115 108.463 100.459 99.6796C99.8031 90.8957 102.327 82.1689 107.571 75.0914C111.963 69.1635 118.017 64.7237 124.918 62.3034C127.144 61.5226 128.603 59.261 128.086 56.9592V56.9592Z" fill="#00A991" stroke="#00A991" stroke-width="3.04233" mask="url(#path-18-inside-1_153_2233)"/>
<circle cx="134.739" cy="98.0449" r="5.09591" transform="rotate(-19.4657 134.739 98.0449)" fill="#161616"/>
<circle cx="153.958" cy="91.2527" r="5.09591" transform="rotate(-19.4657 153.958 91.2527)" fill="#161616"/>
</g>
<path fill-rule="evenodd" clip-rule="evenodd" d="M143.643 116.841V116.571C143.643 114.495 145.349 112.789 147.425 112.789H166.273C168.35 112.789 170.046 114.495 170.046 116.571V133.053V133.333C170.046 135.409 168.35 137.105 166.273 137.105H147.425C145.349 137.105 143.643 135.409 143.643 133.333V116.841Z" fill="#243757"/>
<path fill-rule="evenodd" clip-rule="evenodd" d="M149.078 116.84H175.48V133.332C175.48 135.408 173.775 137.104 171.698 137.104H152.851C150.774 137.104 149.078 135.408 149.078 133.332V116.84Z" fill="#8993A4"/>
<path fill-rule="evenodd" clip-rule="evenodd" d="M149.078 133.059H175.48V116.577C175.48 114.5 173.775 112.794 171.698 112.794H152.851C150.774 112.794 149.078 114.5 149.078 116.577V133.059Z" fill="#8993A4"/>
<path fill-rule="evenodd" clip-rule="evenodd" d="M164.322 124.944V130.369C164.322 131.472 163.421 132.373 162.327 132.373C161.224 132.373 160.323 131.472 160.323 130.369V124.997C158.68 124.255 157.543 122.597 157.543 120.675C157.543 118.059 159.663 115.944 162.274 115.944C164.885 115.944 167.005 118.064 167.005 120.675C167.005 122.554 165.912 124.178 164.317 124.944H164.322Z" fill="#243757"/>
</g>
<path d="M182 71C185.833 65.3333 197.6 54 214 54" stroke="#5D6B82" stroke-width="2" stroke-linecap="round" stroke-dasharray="3 5"/>
<path d="M105.857 53.1825C106.176 46.3485 110.316 30.5445 124.314 22.0004" stroke="#5D6B82" stroke-width="2" stroke-linecap="round" stroke-dasharray="3 5"/>
<path d="M192 93.7676C197.091 93.4377 209.147 95.1944 216.641 104.86" stroke="#5D6B82" stroke-width="2" stroke-linecap="round" stroke-dasharray="3 5"/>
<rect x="129" y="10" width="70.7353" height="24" rx="12" fill="#00A991"/>
<path d="M146.029 25.6934C145.428 25.6934 144.905 25.6003 144.461 25.4141C144.021 25.2279 143.673 24.9683 143.419 24.6353C143.165 24.3022 143.021 23.9137 142.989 23.4697L142.984 23.3945H144.327L144.332 23.4482C144.354 23.6667 144.439 23.8564 144.59 24.0176C144.744 24.1787 144.948 24.3058 145.202 24.3989C145.456 24.4884 145.746 24.5332 146.072 24.5332C146.384 24.5332 146.66 24.4849 146.899 24.3882C147.139 24.2915 147.327 24.159 147.463 23.9907C147.599 23.8188 147.667 23.6219 147.667 23.3999V23.3945C147.667 23.1152 147.558 22.8879 147.34 22.7124C147.121 22.5334 146.762 22.3901 146.26 22.2827L145.428 22.1108C144.633 21.9425 144.055 21.674 143.693 21.3052C143.335 20.9328 143.156 20.4583 143.156 19.8818V19.8765C143.156 19.4146 143.278 19.0099 143.521 18.6626C143.768 18.3153 144.106 18.0449 144.536 17.8516C144.969 17.6546 145.465 17.5562 146.024 17.5562C146.597 17.5562 147.093 17.6528 147.512 17.8462C147.931 18.036 148.26 18.2956 148.5 18.625C148.74 18.9544 148.874 19.3268 148.903 19.7422L148.908 19.812H147.587L147.576 19.7476C147.544 19.5435 147.46 19.3662 147.324 19.2158C147.191 19.0618 147.014 18.9401 146.792 18.8506C146.57 18.7611 146.31 18.7163 146.013 18.7163C145.73 18.7163 145.478 18.7611 145.256 18.8506C145.034 18.9365 144.858 19.0583 144.729 19.2158C144.604 19.3734 144.542 19.5632 144.542 19.7852V19.7905C144.542 20.0627 144.647 20.2882 144.858 20.4673C145.073 20.6463 145.422 20.786 145.906 20.8862L146.738 21.0635C147.283 21.1781 147.725 21.3302 148.065 21.52C148.405 21.7098 148.654 21.9461 148.812 22.229C148.973 22.5083 149.053 22.8449 149.053 23.2388V23.2441C149.053 23.7454 148.93 24.1787 148.683 24.5439C148.439 24.9092 148.09 25.1921 147.635 25.3926C147.184 25.5931 146.649 25.6934 146.029 25.6934ZM150.047 25.5V19.6294H151.379V25.5H150.047ZM150.719 18.6465C150.5 18.6465 150.312 18.5695 150.155 18.4155C149.997 18.2616 149.918 18.0771 149.918 17.8623C149.918 17.6403 149.997 17.4541 150.155 17.3037C150.312 17.1497 150.5 17.0728 150.719 17.0728C150.937 17.0728 151.123 17.1497 151.277 17.3037C151.435 17.4541 151.514 17.6403 151.514 17.8623C151.514 18.0771 151.435 18.2616 151.277 18.4155C151.123 18.5695 150.937 18.6465 150.719 18.6465ZM152.588 25.5V19.6294H153.926V20.5425H154.017C154.142 20.2166 154.345 19.9642 154.624 19.7852C154.907 19.6061 155.242 19.5166 155.628 19.5166C155.893 19.5166 156.131 19.5596 156.343 19.6455C156.557 19.7314 156.742 19.8532 156.896 20.0107C157.05 20.1683 157.168 20.3563 157.25 20.5747H157.347C157.444 20.3634 157.578 20.179 157.75 20.0215C157.925 19.8604 158.129 19.7368 158.362 19.6509C158.599 19.5614 158.853 19.5166 159.125 19.5166C159.519 19.5166 159.855 19.5954 160.135 19.7529C160.418 19.9069 160.634 20.1289 160.785 20.4189C160.939 20.709 161.016 21.0563 161.016 21.4609V25.5H159.678V21.7886C159.678 21.5308 159.639 21.3177 159.56 21.1494C159.485 20.9811 159.368 20.854 159.211 20.7681C159.053 20.6821 158.855 20.6392 158.615 20.6392C158.382 20.6392 158.18 20.6929 158.008 20.8003C157.836 20.9041 157.702 21.0456 157.605 21.2246C157.512 21.4036 157.465 21.606 157.465 21.8315V25.5H156.128V21.6919C156.128 21.4735 156.085 21.2855 155.999 21.1279C155.917 20.9704 155.795 20.8504 155.634 20.7681C155.476 20.6821 155.288 20.6392 155.07 20.6392C154.851 20.6392 154.654 20.6965 154.479 20.811C154.307 20.922 154.171 21.076 154.071 21.2729C153.974 21.4663 153.926 21.6847 153.926 21.9282V25.5H152.588ZM164.094 25.6182C163.657 25.6182 163.29 25.534 162.993 25.3657C162.695 25.1938 162.472 24.945 162.321 24.6191C162.171 24.2897 162.096 23.8923 162.096 23.4268V19.6294H163.433V23.1206C163.433 23.5754 163.522 23.9173 163.701 24.1465C163.881 24.3757 164.172 24.4902 164.577 24.4902C164.792 24.4902 164.982 24.458 165.146 24.3936C165.315 24.3255 165.454 24.2288 165.565 24.1035C165.676 23.9782 165.76 23.8278 165.818 23.6523C165.875 23.4733 165.904 23.2728 165.904 23.0508V19.6294H167.241V25.5H165.904V24.6084H165.812C165.723 24.8161 165.597 24.9969 165.436 25.1509C165.275 25.3013 165.082 25.4176 164.856 25.5C164.631 25.5788 164.376 25.6182 164.094 25.6182ZM168.488 25.5V17.3574H169.825V25.5H168.488ZM172.667 25.5967C172.298 25.5967 171.967 25.5251 171.673 25.3818C171.383 25.2386 171.154 25.0363 170.986 24.7749C170.821 24.5099 170.738 24.1984 170.738 23.8403V23.8296C170.738 23.4823 170.824 23.1833 170.996 22.9326C171.168 22.6784 171.421 22.4797 171.754 22.3364C172.087 22.1932 172.491 22.109 172.967 22.084L175.137 21.9497V22.8306L173.155 22.9595C172.779 22.981 172.502 23.0597 172.323 23.1958C172.144 23.3319 172.054 23.5216 172.054 23.7651V23.7759C172.054 24.0265 172.149 24.2217 172.339 24.3613C172.532 24.501 172.778 24.5708 173.075 24.5708C173.343 24.5708 173.583 24.5171 173.795 24.4097C174.006 24.3022 174.172 24.1572 174.294 23.9746C174.416 23.7884 174.477 23.5789 174.477 23.3462V21.4878C174.477 21.1942 174.384 20.9704 174.197 20.8164C174.011 20.6589 173.736 20.5801 173.37 20.5801C173.066 20.5801 172.817 20.6338 172.624 20.7412C172.43 20.8451 172.3 20.9937 172.232 21.187L172.226 21.2085H170.964L170.969 21.1602C171.012 20.8307 171.141 20.5425 171.356 20.2954C171.571 20.0483 171.856 19.8568 172.21 19.7207C172.565 19.5846 172.973 19.5166 173.435 19.5166C173.943 19.5166 174.373 19.5954 174.724 19.7529C175.075 19.9069 175.342 20.1325 175.524 20.4297C175.707 20.7233 175.798 21.076 175.798 21.4878V25.5H174.477V24.6943H174.385C174.278 24.8805 174.138 25.0417 173.967 25.1777C173.798 25.3138 173.605 25.4176 173.386 25.4893C173.168 25.5609 172.928 25.5967 172.667 25.5967ZM179.274 25.5269C178.6 25.5269 178.115 25.4033 177.818 25.1562C177.521 24.9092 177.372 24.5046 177.372 23.9424V20.666H176.459V19.6294H177.372V18.1899H178.731V19.6294H179.966V20.666H178.731V23.6255C178.731 23.9155 178.792 24.1286 178.914 24.2646C179.039 24.3971 179.24 24.4634 179.515 24.4634C179.612 24.4634 179.691 24.4616 179.752 24.458C179.816 24.4508 179.888 24.4437 179.966 24.4365V25.4678C179.873 25.4857 179.766 25.5 179.644 25.5107C179.526 25.5215 179.402 25.5269 179.274 25.5269ZM183.324 25.6182C182.74 25.6182 182.239 25.4946 181.82 25.2476C181.405 25.0005 181.084 24.6496 180.858 24.1948C180.633 23.7401 180.52 23.2012 180.52 22.5781V22.5728C180.52 21.9569 180.631 21.4198 180.853 20.9614C181.079 20.5031 181.397 20.1486 181.809 19.8979C182.221 19.6437 182.704 19.5166 183.259 19.5166C183.818 19.5166 184.298 19.6401 184.699 19.8872C185.103 20.1307 185.415 20.4727 185.633 20.9131C185.852 21.3535 185.961 21.8691 185.961 22.46V22.9004H181.191V22.0034H185.306L184.672 22.8413V22.3096C184.672 21.9193 184.613 21.5952 184.495 21.3374C184.377 21.0796 184.212 20.8862 184.001 20.7573C183.793 20.6284 183.551 20.564 183.275 20.564C183 20.564 182.754 20.632 182.54 20.7681C182.328 20.9006 182.16 21.0975 182.035 21.3589C181.913 21.6167 181.852 21.9336 181.852 22.3096V22.8467C181.852 23.2083 181.913 23.5181 182.035 23.7759C182.156 24.0301 182.328 24.2271 182.55 24.3667C182.776 24.5028 183.043 24.5708 183.351 24.5708C183.591 24.5708 183.796 24.5368 183.968 24.4688C184.144 24.3971 184.285 24.313 184.393 24.2163C184.5 24.116 184.575 24.0212 184.618 23.9316L184.634 23.894H185.902L185.891 23.9424C185.845 24.1322 185.759 24.3255 185.633 24.5225C185.512 24.7158 185.345 24.8966 185.134 25.0649C184.926 25.2297 184.672 25.3639 184.371 25.4678C184.07 25.568 183.721 25.6182 183.324 25.6182Z" fill="#F5F6F7"/>
<rect x="214" y="107" width="53.7353" height="24" rx="12" fill="#00A991"/>
<path d="M229.031 119.938V118.821H231.094C231.591 118.821 231.978 118.694 232.254 118.439C232.53 118.182 232.667 117.82 232.667 117.354V117.344C232.667 116.875 232.53 116.513 232.254 116.259C231.978 116.005 231.591 115.877 231.094 115.877H229.031V114.75H231.432C231.958 114.75 232.419 114.857 232.812 115.072C233.206 115.287 233.514 115.589 233.736 115.979C233.958 116.366 234.069 116.819 234.069 117.338V117.349C234.069 117.865 233.958 118.318 233.736 118.708C233.514 119.095 233.206 119.397 232.812 119.616C232.419 119.831 231.958 119.938 231.432 119.938H229.031ZM228.338 122.5V114.75H229.724V122.5H228.338ZM235.074 122.5V114.357H236.412V122.5H235.074ZM239.253 122.597C238.884 122.597 238.553 122.525 238.26 122.382C237.97 122.239 237.74 122.036 237.572 121.775C237.407 121.51 237.325 121.198 237.325 120.84V120.83C237.325 120.482 237.411 120.183 237.583 119.933C237.755 119.678 238.007 119.48 238.34 119.336C238.673 119.193 239.078 119.109 239.554 119.084L241.724 118.95V119.831L239.742 119.959C239.366 119.981 239.089 120.06 238.91 120.196C238.731 120.332 238.641 120.522 238.641 120.765V120.776C238.641 121.027 238.736 121.222 238.926 121.361C239.119 121.501 239.364 121.571 239.662 121.571C239.93 121.571 240.17 121.517 240.381 121.41C240.592 121.302 240.759 121.157 240.881 120.975C241.002 120.788 241.063 120.579 241.063 120.346V118.488C241.063 118.194 240.97 117.97 240.784 117.816C240.598 117.659 240.322 117.58 239.957 117.58C239.653 117.58 239.404 117.634 239.21 117.741C239.017 117.845 238.886 117.994 238.818 118.187L238.813 118.208H237.551L237.556 118.16C237.599 117.831 237.728 117.542 237.943 117.295C238.158 117.048 238.442 116.857 238.797 116.721C239.151 116.585 239.559 116.517 240.021 116.517C240.53 116.517 240.96 116.595 241.31 116.753C241.661 116.907 241.928 117.132 242.111 117.43C242.293 117.723 242.385 118.076 242.385 118.488V122.5H241.063V121.694H240.972C240.865 121.881 240.725 122.042 240.553 122.178C240.385 122.314 240.191 122.418 239.973 122.489C239.755 122.561 239.515 122.597 239.253 122.597ZM243.551 122.5V116.629H244.888V117.532H244.979C245.119 117.213 245.33 116.964 245.613 116.785C245.896 116.606 246.249 116.517 246.671 116.517C247.326 116.517 247.828 116.706 248.175 117.086C248.522 117.465 248.696 118.004 248.696 118.703V122.5H247.359V119.014C247.359 118.556 247.262 118.212 247.069 117.983C246.879 117.754 246.582 117.639 246.177 117.639C245.912 117.639 245.683 117.698 245.49 117.816C245.296 117.935 245.148 118.101 245.044 118.316C244.94 118.531 244.888 118.785 244.888 119.079V122.5H243.551ZM252.053 122.618C251.556 122.618 251.126 122.548 250.764 122.409C250.406 122.265 250.123 122.069 249.916 121.818C249.708 121.564 249.585 121.27 249.545 120.937V120.926H250.872L250.877 120.937C250.949 121.141 251.083 121.308 251.28 121.437C251.477 121.565 251.742 121.63 252.075 121.63C252.297 121.63 252.492 121.599 252.66 121.539C252.829 121.474 252.961 121.386 253.058 121.275C253.155 121.164 253.203 121.035 253.203 120.889V120.878C253.203 120.706 253.133 120.563 252.993 120.448C252.854 120.33 252.623 120.235 252.301 120.164L251.35 119.949C250.977 119.866 250.67 119.752 250.426 119.605C250.183 119.458 250 119.277 249.878 119.062C249.76 118.848 249.701 118.597 249.701 118.311V118.305C249.701 117.951 249.799 117.639 249.996 117.371C250.197 117.102 250.474 116.893 250.829 116.742C251.183 116.592 251.592 116.517 252.053 116.517C252.53 116.517 252.94 116.588 253.283 116.731C253.627 116.875 253.896 117.072 254.089 117.322C254.282 117.573 254.393 117.858 254.422 118.176V118.187H253.165L253.16 118.171C253.11 117.985 252.99 117.827 252.8 117.698C252.614 117.566 252.363 117.5 252.048 117.5C251.851 117.5 251.674 117.53 251.516 117.591C251.362 117.652 251.241 117.738 251.151 117.849C251.065 117.956 251.022 118.083 251.022 118.23V118.235C251.022 118.35 251.051 118.45 251.108 118.536C251.169 118.622 251.264 118.697 251.393 118.762C251.522 118.826 251.692 118.883 251.903 118.934L252.854 119.143C253.43 119.272 253.856 119.464 254.132 119.718C254.408 119.972 254.546 120.314 254.546 120.744V120.754C254.546 121.127 254.438 121.453 254.223 121.732C254.009 122.011 253.713 122.23 253.337 122.387C252.961 122.541 252.533 122.618 252.053 122.618Z" fill="#F5F6F7"/>
<rect x="218" y="42" width="88.7353" height="24" rx="12" fill="#00A991"/>
<path d="M232.338 57.5V49.7495H235.47C236.025 49.7495 236.501 49.848 236.898 50.0449C237.296 50.2419 237.6 50.5194 237.812 50.8774C238.023 51.2355 238.128 51.6616 238.128 52.1558V52.1665C238.128 52.6785 238 53.1333 237.742 53.5308C237.487 53.9246 237.131 54.2039 236.673 54.3687L238.365 57.5H236.786L235.26 54.5835C235.253 54.5835 235.242 54.5835 235.228 54.5835C235.214 54.5835 235.201 54.5835 235.19 54.5835H233.724V57.5H232.338ZM233.724 53.52H235.325C235.765 53.52 236.107 53.4036 236.351 53.1709C236.594 52.9382 236.716 52.6141 236.716 52.1987V52.188C236.716 51.7834 236.589 51.4629 236.334 51.2266C236.084 50.9867 235.738 50.8667 235.298 50.8667H233.724V53.52ZM241.566 57.6182C240.983 57.6182 240.481 57.4946 240.062 57.2476C239.647 57.0005 239.327 56.6496 239.101 56.1948C238.875 55.7401 238.763 55.2012 238.763 54.5781V54.5728C238.763 53.9569 238.874 53.4198 239.096 52.9614C239.321 52.5031 239.64 52.1486 240.052 51.8979C240.463 51.6437 240.947 51.5166 241.502 51.5166C242.06 51.5166 242.54 51.6401 242.941 51.8872C243.346 52.1307 243.657 52.4727 243.876 52.9131C244.094 53.3535 244.204 53.8691 244.204 54.46V54.9004H239.434V54.0034H243.548L242.914 54.8413V54.3096C242.914 53.9193 242.855 53.5952 242.737 53.3374C242.619 53.0796 242.454 52.8862 242.243 52.7573C242.035 52.6284 241.794 52.564 241.518 52.564C241.242 52.564 240.997 52.632 240.782 52.7681C240.571 52.9006 240.403 53.0975 240.277 53.3589C240.156 53.6167 240.095 53.9336 240.095 54.3096V54.8467C240.095 55.2083 240.156 55.5181 240.277 55.7759C240.399 56.0301 240.571 56.2271 240.793 56.3667C241.018 56.5028 241.285 56.5708 241.593 56.5708C241.833 56.5708 242.039 56.5368 242.211 56.4688C242.386 56.3971 242.528 56.313 242.635 56.2163C242.743 56.116 242.818 56.0212 242.861 55.9316L242.877 55.894H244.144L244.134 55.9424C244.087 56.1322 244.001 56.3255 243.876 56.5225C243.754 56.7158 243.588 56.8966 243.376 57.0649C243.169 57.2297 242.914 57.3639 242.614 57.4678C242.313 57.568 241.964 57.6182 241.566 57.6182ZM246.702 57.5967C246.333 57.5967 246.002 57.5251 245.708 57.3818C245.418 57.2386 245.189 57.0363 245.02 56.7749C244.856 56.5099 244.773 56.1984 244.773 55.8403V55.8296C244.773 55.4823 244.859 55.1833 245.031 54.9326C245.203 54.6784 245.455 54.4797 245.788 54.3364C246.121 54.1932 246.526 54.109 247.002 54.084L249.172 53.9497V54.8306L247.19 54.9595C246.814 54.981 246.537 55.0597 246.358 55.1958C246.179 55.3319 246.089 55.5216 246.089 55.7651V55.7759C246.089 56.0265 246.184 56.2217 246.374 56.3613C246.567 56.501 246.813 56.5708 247.11 56.5708C247.378 56.5708 247.618 56.5171 247.829 56.4097C248.041 56.3022 248.207 56.1572 248.329 55.9746C248.451 55.7884 248.512 55.5789 248.512 55.3462V53.4878C248.512 53.1942 248.419 52.9704 248.232 52.8164C248.046 52.6589 247.77 52.5801 247.405 52.5801C247.101 52.5801 246.852 52.6338 246.659 52.7412C246.465 52.8451 246.335 52.9937 246.266 53.187L246.261 53.2085H244.999L245.004 53.1602C245.047 52.8307 245.176 52.5425 245.391 52.2954C245.606 52.0483 245.891 51.8568 246.245 51.7207C246.599 51.5846 247.008 51.5166 247.47 51.5166C247.978 51.5166 248.408 51.5954 248.759 51.7529C249.11 51.9069 249.376 52.1325 249.559 52.4297C249.742 52.7233 249.833 53.076 249.833 53.4878V57.5H248.512V56.6943H248.42C248.313 56.8805 248.173 57.0417 248.001 57.1777C247.833 57.3138 247.64 57.4176 247.421 57.4893C247.203 57.5609 246.963 57.5967 246.702 57.5967ZM251.053 57.5V49.3574H252.39V57.5H251.053ZM258.643 57.6182C258.052 57.6182 257.547 57.4964 257.128 57.2529C256.709 57.0094 256.389 56.6585 256.167 56.2002C255.945 55.7419 255.834 55.194 255.834 54.5566V54.5459C255.834 53.9121 255.945 53.3696 256.167 52.9185C256.389 52.4673 256.709 52.1217 257.128 51.8818C257.547 51.6383 258.05 51.5166 258.637 51.5166C259.142 51.5166 259.576 51.6043 259.937 51.7798C260.302 51.9517 260.591 52.1916 260.802 52.4995C261.017 52.8039 261.149 53.1602 261.199 53.5684V53.5898H259.937L259.932 53.5737C259.871 53.2873 259.731 53.0527 259.513 52.8701C259.298 52.6875 259.008 52.5962 258.643 52.5962C258.338 52.5962 258.077 52.6732 257.859 52.8271C257.644 52.9811 257.479 53.2031 257.364 53.4932C257.25 53.7832 257.193 54.1341 257.193 54.5459V54.5566C257.193 54.972 257.25 55.3283 257.364 55.6255C257.483 55.9191 257.649 56.1447 257.864 56.3022C258.079 56.4562 258.338 56.5332 258.643 56.5332C258.99 56.5332 259.269 56.4544 259.481 56.2969C259.696 56.1393 259.844 55.9066 259.926 55.5986L259.937 55.5771L261.194 55.5718L261.189 55.6201C261.124 56.0176 260.985 56.3667 260.77 56.6675C260.558 56.9683 260.276 57.2028 259.921 57.3711C259.567 57.5358 259.14 57.6182 258.643 57.6182ZM264.568 57.6182C263.984 57.6182 263.481 57.4964 263.058 57.2529C262.636 57.0059 262.31 56.6549 262.081 56.2002C261.855 55.7454 261.742 55.2012 261.742 54.5674V54.5566C261.742 53.93 261.857 53.3893 262.086 52.9346C262.315 52.4762 262.639 52.1253 263.058 51.8818C263.481 51.6383 263.984 51.5166 264.568 51.5166C265.151 51.5166 265.652 51.6383 266.071 51.8818C266.494 52.1253 266.82 52.4744 267.049 52.9292C267.278 53.384 267.393 53.9264 267.393 54.5566V54.5674C267.393 55.2012 267.278 55.7454 267.049 56.2002C266.823 56.6549 266.499 57.0059 266.077 57.2529C265.658 57.4964 265.155 57.6182 264.568 57.6182ZM264.568 56.5332C264.875 56.5332 265.137 56.4562 265.352 56.3022C265.57 56.1447 265.737 55.9209 265.851 55.6309C265.966 55.3372 266.023 54.9845 266.023 54.5728V54.562C266.023 54.1466 265.966 53.7939 265.851 53.5039C265.737 53.2103 265.57 52.9865 265.352 52.8325C265.137 52.675 264.875 52.5962 264.568 52.5962C264.26 52.5962 263.996 52.675 263.778 52.8325C263.56 52.9865 263.393 53.2103 263.278 53.5039C263.164 53.7939 263.107 54.1466 263.107 54.562V54.5728C263.107 54.9845 263.164 55.3372 263.278 55.6309C263.393 55.9245 263.558 56.1483 263.773 56.3022C263.991 56.4562 264.256 56.5332 264.568 56.5332ZM268.295 57.5V51.6294H269.633V52.5317H269.724C269.864 52.2131 270.075 51.9642 270.358 51.7852C270.641 51.6061 270.994 51.5166 271.416 51.5166C272.071 51.5166 272.573 51.7064 272.92 52.0859C273.267 52.4655 273.441 53.0044 273.441 53.7026V57.5H272.104V54.0142C272.104 53.5558 272.007 53.2121 271.814 52.9829C271.624 52.7537 271.327 52.6392 270.922 52.6392C270.657 52.6392 270.428 52.6982 270.234 52.8164C270.041 52.9346 269.892 53.1011 269.789 53.3159C269.685 53.5308 269.633 53.785 269.633 54.0786V57.5H268.295ZM276.89 57.5269C276.216 57.5269 275.731 57.4033 275.434 57.1562C275.137 56.9092 274.988 56.5046 274.988 55.9424V52.666H274.075V51.6294H274.988V50.1899H276.347V51.6294H277.583V52.666H276.347V55.6255C276.347 55.9155 276.408 56.1286 276.53 56.2646C276.655 56.3971 276.856 56.4634 277.131 56.4634C277.228 56.4634 277.307 56.4616 277.368 56.458C277.432 56.4508 277.504 56.4437 277.583 56.4365V57.4678C277.489 57.4857 277.382 57.5 277.26 57.5107C277.142 57.5215 277.019 57.5269 276.89 57.5269ZM280.94 57.6182C280.356 57.6182 279.855 57.4946 279.436 57.2476C279.021 57.0005 278.7 56.6496 278.475 56.1948C278.249 55.7401 278.136 55.2012 278.136 54.5781V54.5728C278.136 53.9569 278.247 53.4198 278.469 52.9614C278.695 52.5031 279.013 52.1486 279.425 51.8979C279.837 51.6437 280.32 51.5166 280.875 51.5166C281.434 51.5166 281.914 51.6401 282.315 51.8872C282.72 52.1307 283.031 52.4727 283.249 52.9131C283.468 53.3535 283.577 53.8691 283.577 54.46V54.9004H278.808V54.0034H282.922L282.288 54.8413V54.3096C282.288 53.9193 282.229 53.5952 282.111 53.3374C281.993 53.0796 281.828 52.8862 281.617 52.7573C281.409 52.6284 281.167 52.564 280.892 52.564C280.616 52.564 280.371 52.632 280.156 52.7681C279.944 52.9006 279.776 53.0975 279.651 53.3589C279.529 53.6167 279.468 53.9336 279.468 54.3096V54.8467C279.468 55.2083 279.529 55.5181 279.651 55.7759C279.773 56.0301 279.944 56.2271 280.166 56.3667C280.392 56.5028 280.659 56.5708 280.967 56.5708C281.207 56.5708 281.413 56.5368 281.584 56.4688C281.76 56.3971 281.901 56.313 282.009 56.2163C282.116 56.116 282.191 56.0212 282.234 55.9316L282.25 55.894H283.518L283.507 55.9424C283.461 56.1322 283.375 56.3255 283.249 56.5225C283.128 56.7158 282.961 56.8966 282.75 57.0649C282.542 57.2297 282.288 57.3639 281.987 57.4678C281.686 57.568 281.337 57.6182 280.94 57.6182ZM283.792 57.5L285.694 54.5889L283.776 51.6294H285.318L286.489 53.665H286.58L287.74 51.6294H289.206L287.305 54.5298L289.228 57.5H287.724L286.521 55.459H286.43L285.226 57.5H283.792ZM292.274 57.5269C291.601 57.5269 291.115 57.4033 290.818 57.1562C290.521 56.9092 290.372 56.5046 290.372 55.9424V52.666H289.459V51.6294H290.372V50.1899H291.731V51.6294H292.967V52.666H291.731V55.6255C291.731 55.9155 291.792 56.1286 291.914 56.2646C292.039 56.3971 292.24 56.4634 292.515 56.4634C292.612 56.4634 292.691 56.4616 292.752 56.458C292.816 56.4508 292.888 56.4437 292.967 56.4365V57.4678C292.874 57.4857 292.766 57.5 292.644 57.5107C292.526 57.5215 292.403 57.5269 292.274 57.5269Z" fill="#F5F6F7"/>
<defs>
<clipPath id="clip0_153_2233">
<rect width="189.142" height="123" fill="white" transform="translate(13 45)"/>
</clipPath>
</defs>
</svg>
