<svg width="129" height="129" viewBox="0 0 129 129" fill="none" xmlns="http://www.w3.org/2000/svg">
<circle cx="64.6986" cy="65.2399" r="39.2104" transform="rotate(30 64.6986 65.2399)" fill="#2B7FFF"/>
<mask id="path-2-inside-1_163_2345" fill="white">
<path d="M71.421 6.50003C71.8194 3.16123 69.433 0.101262 66.0716 0.0192745C52.737 -0.305959 39.5726 3.51288 28.4319 11.0275C15.602 19.6814 6.31122 32.6599 2.25498 47.5946C-1.80125 62.5293 -0.352548 78.4246 6.33674 92.38C13.026 106.335 24.5099 117.42 38.6929 123.612C52.8759 129.804 68.8125 130.691 83.5945 126.109C98.3766 121.528 111.019 111.784 119.214 98.6564C127.409 85.5287 130.611 69.892 128.236 54.5997C126.173 41.3208 120.024 29.0702 110.721 19.5121C108.375 17.1026 104.509 17.4327 102.331 19.9947V19.9947C100.153 22.5567 100.496 26.3771 102.787 28.8376C109.891 36.4642 114.589 46.0784 116.203 56.4688C118.13 68.8742 115.533 81.5589 108.885 92.2082C102.237 102.858 91.9812 110.762 79.9898 114.478C67.9984 118.195 55.0704 117.476 43.565 112.453C32.0595 107.43 22.7436 98.4375 17.3171 87.1167C11.8907 75.7959 10.7155 62.9014 14.0059 50.7861C17.2964 38.6709 24.8332 28.1426 35.241 21.1223C43.9583 15.2424 54.203 12.1518 64.6256 12.1769C67.9881 12.1851 71.0226 9.83884 71.421 6.50003V6.50003Z"/>
</mask>
<path d="M71.421 6.50003C71.8194 3.16123 69.433 0.101262 66.0716 0.0192745C52.737 -0.305959 39.5726 3.51288 28.4319 11.0275C15.602 19.6814 6.31122 32.6599 2.25498 47.5946C-1.80125 62.5293 -0.352548 78.4246 6.33674 92.38C13.026 106.335 24.5099 117.42 38.6929 123.612C52.8759 129.804 68.8125 130.691 83.5945 126.109C98.3766 121.528 111.019 111.784 119.214 98.6564C127.409 85.5287 130.611 69.892 128.236 54.5997C126.173 41.3208 120.024 29.0702 110.721 19.5121C108.375 17.1026 104.509 17.4327 102.331 19.9947V19.9947C100.153 22.5567 100.496 26.3771 102.787 28.8376C109.891 36.4642 114.589 46.0784 116.203 56.4688C118.13 68.8742 115.533 81.5589 108.885 92.2082C102.237 102.858 91.9812 110.762 79.9898 114.478C67.9984 118.195 55.0704 117.476 43.565 112.453C32.0595 107.43 22.7436 98.4375 17.3171 87.1167C11.8907 75.7959 10.7155 62.9014 14.0059 50.7861C17.2964 38.6709 24.8332 28.1426 35.241 21.1223C43.9583 15.2424 54.203 12.1518 64.6256 12.1769C67.9881 12.1851 71.0226 9.83884 71.421 6.50003V6.50003Z" fill="#2B7FFF" stroke="#2B7FFF" stroke-width="4.33613" mask="url(#path-2-inside-1_163_2345)"/>
<path d="M66.6442 60.3007C67.4139 64.883 64.3234 69.2215 59.7411 69.9912C55.1588 70.7608 50.8203 67.6703 50.0505 63.0881C50.0336 62.9875 50.021 62.8866 50.0078 62.7863L66.586 60.0015C66.6063 60.1006 66.6273 60.2001 66.6442 60.3007Z" fill="#161616"/>
<path d="M96.7125 63.4752C95.8386 68.2054 91.2953 71.3316 86.5651 70.4578C81.8349 69.5839 78.7086 65.0407 79.5825 60.3104C79.6017 60.2066 79.6248 60.1039 79.6475 60.0017L96.7622 63.1636C96.7468 63.2672 96.7317 63.3714 96.7125 63.4752Z" fill="#161616"/>
</svg>
